ISO-10303-21;
HEADER;
FILE_DESCRIPTION((''),'2;1');
FILE_NAME('026192031','2014-09-08T',('me'),(''),
'PRO/ENGINEER BY PARAMETRIC TECHNOLOGY CORPORATION, 2011490',
'PRO/ENGINEER BY PARAMETRIC TECHNOLOGY CORPORATION, 2011490','');
FILE_SCHEMA(('CONFIG_CONTROL_DESIGN'));
ENDSEC;
DATA;
#1=DIRECTION('',(0.E0,1.E0,0.E0));
#2=VECTOR('',#1,9.12E0);
#3=CARTESIAN_POINT('',(5.945E0,-1.585E0,-3.43E0));
#4=LINE('',#3,#2);
#5=DIRECTION('',(1.E0,0.E0,0.E0));
#6=VECTOR('',#5,8.9E-1);
#7=CARTESIAN_POINT('',(-5.945E0,-1.585E0,-3.43E0));
#8=LINE('',#7,#6);
#9=DIRECTION('',(0.E0,1.E0,0.E0));
#10=VECTOR('',#9,3.8E-1);
#11=CARTESIAN_POINT('',(-5.055E0,-1.585E0,-3.43E0));
#12=LINE('',#11,#10);
#13=DIRECTION('',(-1.E0,0.E0,0.E0));
#14=VECTOR('',#13,2.18E0);
#15=CARTESIAN_POINT('',(-2.875E0,-1.205E0,-3.43E0));
#16=LINE('',#15,#14);
#17=DIRECTION('',(0.E0,1.E0,0.E0));
#18=VECTOR('',#17,3.8E-1);
#19=CARTESIAN_POINT('',(-2.875E0,-1.585E0,-3.43E0));
#20=LINE('',#19,#18);
#21=DIRECTION('',(1.E0,0.E0,0.E0));
#22=VECTOR('',#21,1.78E0);
#23=CARTESIAN_POINT('',(-2.875E0,-1.585E0,-3.43E0));
#24=LINE('',#23,#22);
#25=DIRECTION('',(0.E0,1.E0,0.E0));
#26=VECTOR('',#25,3.8E-1);
#27=CARTESIAN_POINT('',(-1.095E0,-1.585E0,-3.43E0));
#28=LINE('',#27,#26);
#29=DIRECTION('',(-1.E0,0.E0,0.E0));
#30=VECTOR('',#29,2.18E0);
#31=CARTESIAN_POINT('',(1.085E0,-1.205E0,-3.43E0));
#32=LINE('',#31,#30);
#33=DIRECTION('',(0.E0,1.E0,0.E0));
#34=VECTOR('',#33,3.8E-1);
#35=CARTESIAN_POINT('',(1.085E0,-1.585E0,-3.43E0));
#36=LINE('',#35,#34);
#37=DIRECTION('',(1.E0,0.E0,0.E0));
#38=VECTOR('',#37,1.78E0);
#39=CARTESIAN_POINT('',(1.085E0,-1.585E0,-3.43E0));
#40=LINE('',#39,#38);
#41=DIRECTION('',(0.E0,1.E0,0.E0));
#42=VECTOR('',#41,3.8E-1);
#43=CARTESIAN_POINT('',(2.865E0,-1.585E0,-3.43E0));
#44=LINE('',#43,#42);
#45=DIRECTION('',(-1.E0,0.E0,0.E0));
#46=VECTOR('',#45,2.18E0);
#47=CARTESIAN_POINT('',(5.045E0,-1.205E0,-3.43E0));
#48=LINE('',#47,#46);
#49=DIRECTION('',(0.E0,1.E0,0.E0));
#50=VECTOR('',#49,3.8E-1);
#51=CARTESIAN_POINT('',(5.045E0,-1.585E0,-3.43E0));
#52=LINE('',#51,#50);
#53=DIRECTION('',(1.E0,0.E0,0.E0));
#54=VECTOR('',#53,9.E-1);
#55=CARTESIAN_POINT('',(5.045E0,-1.585E0,-3.43E0));
#56=LINE('',#55,#54);
#57=DIRECTION('',(0.E0,-1.E0,0.E0));
#58=VECTOR('',#57,5.291820693124E0);
#59=CARTESIAN_POINT('',(5.945E0,6.876820693124E0,-2.45E0));
#60=LINE('',#59,#58);
#61=DIRECTION('',(0.E0,-8.660254037844E-1,5.E-1));
#62=VECTOR('',#61,7.6E-1);
#63=CARTESIAN_POINT('',(5.945E0,7.535E0,-2.83E0));
#64=LINE('',#63,#62);
#65=DIRECTION('',(0.E0,0.E0,1.E0));
#66=VECTOR('',#65,6.E-1);
#67=CARTESIAN_POINT('',(5.945E0,7.535E0,-3.43E0));
#68=LINE('',#67,#66);
#69=DIRECTION('',(0.E0,0.E0,1.E0));
#70=VECTOR('',#69,6.9E0);
#71=CARTESIAN_POINT('',(5.945E0,-1.585E0,-3.43E0));
#72=LINE('',#71,#70);
#73=DIRECTION('',(-1.E0,0.E0,0.E0));
#74=VECTOR('',#73,9.E-1);
#75=CARTESIAN_POINT('',(5.945E0,1.585E0,-2.45E0));
#76=LINE('',#75,#74);
#77=DIRECTION('',(0.E0,0.E0,1.E0));
#78=VECTOR('',#77,5.92E0);
#79=CARTESIAN_POINT('',(5.945E0,1.585E0,-2.45E0));
#80=LINE('',#79,#78);
#81=DIRECTION('',(0.E0,0.E0,1.E0));
#82=VECTOR('',#81,5.92E0);
#83=CARTESIAN_POINT('',(5.045E0,1.585E0,-2.45E0));
#84=LINE('',#83,#82);
#85=DIRECTION('',(-1.E0,0.E0,0.E0));
#86=VECTOR('',#85,8.9E-1);
#87=CARTESIAN_POINT('',(-5.055E0,1.585E0,-2.45E0));
#88=LINE('',#87,#86);
#89=DIRECTION('',(0.E0,0.E0,1.E0));
#90=VECTOR('',#89,5.92E0);
#91=CARTESIAN_POINT('',(-5.055E0,1.585E0,-2.45E0));
#92=LINE('',#91,#90);
#93=DIRECTION('',(-1.E0,0.E0,0.E0));
#94=VECTOR('',#93,1.78E0);
#95=CARTESIAN_POINT('',(2.865E0,1.585E0,-2.45E0));
#96=LINE('',#95,#94);
#97=DIRECTION('',(0.E0,0.E0,1.E0));
#98=VECTOR('',#97,5.92E0);
#99=CARTESIAN_POINT('',(2.865E0,1.585E0,-2.45E0));
#100=LINE('',#99,#98);
#101=DIRECTION('',(0.E0,0.E0,1.E0));
#102=VECTOR('',#101,5.92E0);
#103=CARTESIAN_POINT('',(1.085E0,1.585E0,-2.45E0));
#104=LINE('',#103,#102);
#105=DIRECTION('',(0.E0,0.E0,1.E0));
#106=VECTOR('',#105,5.92E0);
#107=CARTESIAN_POINT('',(-2.875E0,1.585E0,-2.45E0));
#108=LINE('',#107,#106);
#109=DIRECTION('',(-1.E0,0.E0,0.E0));
#110=VECTOR('',#109,1.78E0);
#111=CARTESIAN_POINT('',(-1.095E0,1.585E0,-2.45E0));
#112=LINE('',#111,#110);
#113=DIRECTION('',(0.E0,0.E0,1.E0));
#114=VECTOR('',#113,5.92E0);
#115=CARTESIAN_POINT('',(-1.095E0,1.585E0,-2.45E0));
#116=LINE('',#115,#114);
#117=DIRECTION('',(0.E0,0.E0,1.E0));
#118=VECTOR('',#117,3.E0);
#119=CARTESIAN_POINT('',(-2.495E0,1.585E0,-1.5E0));
#120=LINE('',#119,#118);
#121=DIRECTION('',(1.E0,0.E0,0.E0));
#122=VECTOR('',#121,1.02E0);
#123=CARTESIAN_POINT('',(-2.495E0,1.585E0,1.5E0));
#124=LINE('',#123,#122);
#125=DIRECTION('',(0.E0,0.E0,-1.E0));
#126=VECTOR('',#125,3.E0);
#127=CARTESIAN_POINT('',(-1.475E0,1.585E0,1.5E0));
#128=LINE('',#127,#126);
#129=DIRECTION('',(-1.E0,0.E0,0.E0));
#130=VECTOR('',#129,1.02E0);
#131=CARTESIAN_POINT('',(-1.475E0,1.585E0,-1.5E0));
#132=LINE('',#131,#130);
#133=DIRECTION('',(0.E0,0.E0,1.E0));
#134=VECTOR('',#133,3.E0);
#135=CARTESIAN_POINT('',(1.465E0,1.585E0,-1.5E0));
#136=LINE('',#135,#134);
#137=DIRECTION('',(1.E0,0.E0,0.E0));
#138=VECTOR('',#137,1.02E0);
#139=CARTESIAN_POINT('',(1.465E0,1.585E0,1.5E0));
#140=LINE('',#139,#138);
#141=DIRECTION('',(0.E0,0.E0,-1.E0));
#142=VECTOR('',#141,3.E0);
#143=CARTESIAN_POINT('',(2.485E0,1.585E0,1.5E0));
#144=LINE('',#143,#142);
#145=DIRECTION('',(-1.E0,0.E0,0.E0));
#146=VECTOR('',#145,1.02E0);
#147=CARTESIAN_POINT('',(2.485E0,1.585E0,-1.5E0));
#148=LINE('',#147,#146);
#149=DIRECTION('',(1.E0,0.E0,0.E0));
#150=VECTOR('',#149,1.189E1);
#151=CARTESIAN_POINT('',(-5.945E0,6.876820693124E0,-2.45E0));
#152=LINE('',#151,#150);
#153=DIRECTION('',(0.E0,1.E0,0.E0));
#154=VECTOR('',#153,3.8E-1);
#155=CARTESIAN_POINT('',(5.045E0,1.205E0,-2.45E0));
#156=LINE('',#155,#154);
#157=DIRECTION('',(0.E0,0.E0,-1.E0));
#158=VECTOR('',#157,5.92E0);
#159=CARTESIAN_POINT('',(5.045E0,1.205E0,3.47E0));
#160=LINE('',#159,#158);
#161=DIRECTION('',(0.E0,-1.E0,0.E0));
#162=VECTOR('',#161,3.8E-1);
#163=CARTESIAN_POINT('',(2.865E0,1.585E0,3.47E0));
#164=LINE('',#163,#162);
#165=DIRECTION('',(1.E0,0.E0,0.E0));
#166=VECTOR('',#165,2.18E0);
#167=CARTESIAN_POINT('',(2.865E0,1.205E0,3.47E0));
#168=LINE('',#167,#166);
#169=DIRECTION('',(0.E0,-1.E0,0.E0));
#170=VECTOR('',#169,3.8E-1);
#171=CARTESIAN_POINT('',(5.045E0,1.585E0,3.47E0));
#172=LINE('',#171,#170);
#173=DIRECTION('',(-1.E0,0.E0,0.E0));
#174=VECTOR('',#173,9.E-1);
#175=CARTESIAN_POINT('',(5.945E0,1.585E0,3.47E0));
#176=LINE('',#175,#174);
#177=DIRECTION('',(0.E0,1.E0,0.E0));
#178=VECTOR('',#177,3.17E0);
#179=CARTESIAN_POINT('',(5.945E0,-1.585E0,3.47E0));
#180=LINE('',#179,#178);
#181=DIRECTION('',(1.E0,0.E0,0.E0));
#182=VECTOR('',#181,9.E-1);
#183=CARTESIAN_POINT('',(5.045E0,-1.585E0,3.47E0));
#184=LINE('',#183,#182);
#185=DIRECTION('',(0.E0,1.E0,0.E0));
#186=VECTOR('',#185,3.8E-1);
#187=CARTESIAN_POINT('',(5.045E0,-1.585E0,3.47E0));
#188=LINE('',#187,#186);
#189=DIRECTION('',(-1.E0,0.E0,0.E0));
#190=VECTOR('',#189,2.18E0);
#191=CARTESIAN_POINT('',(5.045E0,-1.205E0,3.47E0));
#192=LINE('',#191,#190);
#193=DIRECTION('',(0.E0,1.E0,0.E0));
#194=VECTOR('',#193,3.8E-1);
#195=CARTESIAN_POINT('',(2.865E0,-1.585E0,3.47E0));
#196=LINE('',#195,#194);
#197=DIRECTION('',(1.E0,0.E0,0.E0));
#198=VECTOR('',#197,1.78E0);
#199=CARTESIAN_POINT('',(1.085E0,-1.585E0,3.47E0));
#200=LINE('',#199,#198);
#201=DIRECTION('',(0.E0,1.E0,0.E0));
#202=VECTOR('',#201,3.8E-1);
#203=CARTESIAN_POINT('',(1.085E0,-1.585E0,3.47E0));
#204=LINE('',#203,#202);
#205=DIRECTION('',(-1.E0,0.E0,0.E0));
#206=VECTOR('',#205,2.18E0);
#207=CARTESIAN_POINT('',(1.085E0,-1.205E0,3.47E0));
#208=LINE('',#207,#206);
#209=DIRECTION('',(0.E0,1.E0,0.E0));
#210=VECTOR('',#209,3.8E-1);
#211=CARTESIAN_POINT('',(-1.095E0,-1.585E0,3.47E0));
#212=LINE('',#211,#210);
#213=DIRECTION('',(1.E0,0.E0,0.E0));
#214=VECTOR('',#213,1.78E0);
#215=CARTESIAN_POINT('',(-2.875E0,-1.585E0,3.47E0));
#216=LINE('',#215,#214);
#217=DIRECTION('',(0.E0,1.E0,0.E0));
#218=VECTOR('',#217,3.8E-1);
#219=CARTESIAN_POINT('',(-2.875E0,-1.585E0,3.47E0));
#220=LINE('',#219,#218);
#221=DIRECTION('',(-1.E0,0.E0,0.E0));
#222=VECTOR('',#221,2.18E0);
#223=CARTESIAN_POINT('',(-2.875E0,-1.205E0,3.47E0));
#224=LINE('',#223,#222);
#225=DIRECTION('',(0.E0,1.E0,0.E0));
#226=VECTOR('',#225,3.8E-1);
#227=CARTESIAN_POINT('',(-5.055E0,-1.585E0,3.47E0));
#228=LINE('',#227,#226);
#229=DIRECTION('',(1.E0,0.E0,0.E0));
#230=VECTOR('',#229,8.9E-1);
#231=CARTESIAN_POINT('',(-5.945E0,-1.585E0,3.47E0));
#232=LINE('',#231,#230);
#233=DIRECTION('',(0.E0,-1.E0,0.E0));
#234=VECTOR('',#233,3.17E0);
#235=CARTESIAN_POINT('',(-5.945E0,1.585E0,3.47E0));
#236=LINE('',#235,#234);
#237=DIRECTION('',(-1.E0,0.E0,0.E0));
#238=VECTOR('',#237,8.9E-1);
#239=CARTESIAN_POINT('',(-5.055E0,1.585E0,3.47E0));
#240=LINE('',#239,#238);
#241=DIRECTION('',(0.E0,-1.E0,0.E0));
#242=VECTOR('',#241,3.8E-1);
#243=CARTESIAN_POINT('',(-5.055E0,1.585E0,3.47E0));
#244=LINE('',#243,#242);
#245=DIRECTION('',(1.E0,0.E0,0.E0));
#246=VECTOR('',#245,2.18E0);
#247=CARTESIAN_POINT('',(-5.055E0,1.205E0,3.47E0));
#248=LINE('',#247,#246);
#249=DIRECTION('',(0.E0,-1.E0,0.E0));
#250=VECTOR('',#249,3.8E-1);
#251=CARTESIAN_POINT('',(-2.875E0,1.585E0,3.47E0));
#252=LINE('',#251,#250);
#253=DIRECTION('',(-1.E0,0.E0,0.E0));
#254=VECTOR('',#253,1.78E0);
#255=CARTESIAN_POINT('',(-1.095E0,1.585E0,3.47E0));
#256=LINE('',#255,#254);
#257=DIRECTION('',(0.E0,-1.E0,0.E0));
#258=VECTOR('',#257,3.8E-1);
#259=CARTESIAN_POINT('',(-1.095E0,1.585E0,3.47E0));
#260=LINE('',#259,#258);
#261=DIRECTION('',(1.E0,0.E0,0.E0));
#262=VECTOR('',#261,2.18E0);
#263=CARTESIAN_POINT('',(-1.095E0,1.205E0,3.47E0));
#264=LINE('',#263,#262);
#265=DIRECTION('',(0.E0,-1.E0,0.E0));
#266=VECTOR('',#265,3.8E-1);
#267=CARTESIAN_POINT('',(1.085E0,1.585E0,3.47E0));
#268=LINE('',#267,#266);
#269=DIRECTION('',(-1.E0,0.E0,0.E0));
#270=VECTOR('',#269,1.78E0);
#271=CARTESIAN_POINT('',(2.865E0,1.585E0,3.47E0));
#272=LINE('',#271,#270);
#273=DIRECTION('',(0.E0,-1.E0,0.E0));
#274=VECTOR('',#273,3.8E-1);
#275=CARTESIAN_POINT('',(2.865E0,1.585E0,-2.45E0));
#276=LINE('',#275,#274);
#277=CARTESIAN_POINT('',(3.955E0,1.205E0,0.E0));
#278=DIRECTION('',(0.E0,1.E0,0.E0));
#279=DIRECTION('',(1.E0,0.E0,0.E0));
#280=AXIS2_PLACEMENT_3D('',#277,#278,#279);
#282=CARTESIAN_POINT('',(3.955E0,1.205E0,0.E0));
#283=DIRECTION('',(0.E0,1.E0,0.E0));
#284=DIRECTION('',(-1.E0,0.E0,0.E0));
#285=AXIS2_PLACEMENT_3D('',#282,#283,#284);
#287=DIRECTION('',(1.E0,0.E0,0.E0));
#288=VECTOR('',#287,2.18E0);
#289=CARTESIAN_POINT('',(2.865E0,1.205E0,-2.45E0));
#290=LINE('',#289,#288);
#291=DIRECTION('',(0.E0,0.E0,-1.E0));
#292=VECTOR('',#291,5.92E0);
#293=CARTESIAN_POINT('',(2.865E0,1.205E0,3.47E0));
#294=LINE('',#293,#292);
#295=CARTESIAN_POINT('',(3.955E0,-5.145E0,0.E0));
#296=DIRECTION('',(0.E0,1.E0,0.E0));
#297=DIRECTION('',(1.E0,0.E0,0.E0));
#298=AXIS2_PLACEMENT_3D('',#295,#296,#297);
#300=DIRECTION('',(0.E0,1.E0,0.E0));
#301=VECTOR('',#300,1.092E1);
#302=CARTESIAN_POINT('',(3.385E0,1.205E0,0.E0));
#303=LINE('',#302,#301);
#304=DIRECTION('',(0.E0,1.E0,0.E0));
#305=VECTOR('',#304,1.092E1);
#306=CARTESIAN_POINT('',(4.525E0,1.205E0,0.E0));
#307=LINE('',#306,#305);
#308=DIRECTION('',(0.E0,1.E0,0.E0));
#309=VECTOR('',#308,3.94E0);
#310=CARTESIAN_POINT('',(4.525E0,-5.145E0,0.E0));
#311=LINE('',#310,#309);
#312=CARTESIAN_POINT('',(3.955E0,-5.145E0,0.E0));
#313=DIRECTION('',(0.E0,-1.E0,0.E0));
#314=DIRECTION('',(1.E0,0.E0,0.E0));
#315=AXIS2_PLACEMENT_3D('',#312,#313,#314);
#317=DIRECTION('',(0.E0,1.E0,0.E0));
#318=VECTOR('',#317,3.94E0);
#319=CARTESIAN_POINT('',(3.385E0,-5.145E0,0.E0));
#320=LINE('',#319,#318);
#321=DIRECTION('',(-3.568681169914E-1,9.341547768304E-1,0.E0));
#322=VECTOR('',#321,9.527329111561E-1);
#323=CARTESIAN_POINT('',(4.525E0,1.2125E1,0.E0));
#324=LINE('',#323,#322);
#325=CARTESIAN_POINT('',(3.955E0,1.2125E1,0.E0));
#326=DIRECTION('',(0.E0,-1.E0,0.E0));
#327=DIRECTION('',(1.E0,0.E0,0.E0));
#328=AXIS2_PLACEMENT_3D('',#325,#326,#327);
#330=DIRECTION('',(3.568681169914E-1,9.341547768304E-1,0.E0));
#331=VECTOR('',#330,9.527329111561E-1);
#332=CARTESIAN_POINT('',(3.385E0,1.2125E1,0.E0));
#333=LINE('',#332,#331);
#334=CARTESIAN_POINT('',(3.955E0,1.2125E1,0.E0));
#335=DIRECTION('',(0.E0,1.E0,0.E0));
#336=DIRECTION('',(1.E0,0.E0,0.E0));
#337=AXIS2_PLACEMENT_3D('',#334,#335,#336);
#339=CARTESIAN_POINT('',(3.955E0,1.3015E1,0.E0));
#340=DIRECTION('',(0.E0,-1.E0,0.E0));
#341=DIRECTION('',(1.E0,0.E0,0.E0));
#342=AXIS2_PLACEMENT_3D('',#339,#340,#341);
#344=CARTESIAN_POINT('',(3.955E0,1.3015E1,0.E0));
#345=DIRECTION('',(0.E0,1.E0,0.E0));
#346=DIRECTION('',(1.E0,0.E0,0.E0));
#347=AXIS2_PLACEMENT_3D('',#344,#345,#346);
#349=DIRECTION('',(0.E0,0.E0,-1.E0));
#350=VECTOR('',#349,6.9E0);
#351=CARTESIAN_POINT('',(5.045E0,-1.205E0,3.47E0));
#352=LINE('',#351,#350);
#353=CARTESIAN_POINT('',(3.955E0,-1.205E0,0.E0));
#354=DIRECTION('',(0.E0,1.E0,0.E0));
#355=DIRECTION('',(1.E0,0.E0,0.E0));
#356=AXIS2_PLACEMENT_3D('',#353,#354,#355);
#358=CARTESIAN_POINT('',(3.955E0,-1.205E0,0.E0));
#359=DIRECTION('',(0.E0,1.E0,0.E0));
#360=DIRECTION('',(-1.E0,0.E0,0.E0));
#361=AXIS2_PLACEMENT_3D('',#358,#359,#360);
#363=DIRECTION('',(0.E0,0.E0,-1.E0));
#364=VECTOR('',#363,6.9E0);
#365=CARTESIAN_POINT('',(2.865E0,-1.205E0,3.47E0));
#366=LINE('',#365,#364);
#367=DIRECTION('',(0.E0,0.E0,1.E0));
#368=VECTOR('',#367,6.9E0);
#369=CARTESIAN_POINT('',(-5.055E0,-1.585E0,-3.43E0));
#370=LINE('',#369,#368);
#371=DIRECTION('',(0.E0,0.E0,1.E0));
#372=VECTOR('',#371,6.9E0);
#373=CARTESIAN_POINT('',(-5.945E0,-1.585E0,-3.43E0));
#374=LINE('',#373,#372);
#375=DIRECTION('',(0.E0,0.E0,1.E0));
#376=VECTOR('',#375,6.9E0);
#377=CARTESIAN_POINT('',(-1.095E0,-1.585E0,-3.43E0));
#378=LINE('',#377,#376);
#379=DIRECTION('',(0.E0,0.E0,1.E0));
#380=VECTOR('',#379,6.9E0);
#381=CARTESIAN_POINT('',(-2.875E0,-1.585E0,-3.43E0));
#382=LINE('',#381,#380);
#383=DIRECTION('',(0.E0,0.E0,1.E0));
#384=VECTOR('',#383,6.9E0);
#385=CARTESIAN_POINT('',(5.045E0,-1.585E0,-3.43E0));
#386=LINE('',#385,#384);
#387=DIRECTION('',(0.E0,0.E0,1.E0));
#388=VECTOR('',#387,6.9E0);
#389=CARTESIAN_POINT('',(2.865E0,-1.585E0,-3.43E0));
#390=LINE('',#389,#388);
#391=DIRECTION('',(0.E0,0.E0,1.E0));
#392=VECTOR('',#391,6.9E0);
#393=CARTESIAN_POINT('',(1.085E0,-1.585E0,-3.43E0));
#394=LINE('',#393,#392);
#395=DIRECTION('',(0.E0,0.E0,1.E0));
#396=VECTOR('',#395,3.E0);
#397=CARTESIAN_POINT('',(-2.495E0,-1.585E0,-1.5E0));
#398=LINE('',#397,#396);
#399=DIRECTION('',(-1.E0,0.E0,0.E0));
#400=VECTOR('',#399,1.02E0);
#401=CARTESIAN_POINT('',(-1.475E0,-1.585E0,-1.5E0));
#402=LINE('',#401,#400);
#403=DIRECTION('',(0.E0,0.E0,-1.E0));
#404=VECTOR('',#403,3.E0);
#405=CARTESIAN_POINT('',(-1.475E0,-1.585E0,1.5E0));
#406=LINE('',#405,#404);
#407=DIRECTION('',(1.E0,0.E0,0.E0));
#408=VECTOR('',#407,1.02E0);
#409=CARTESIAN_POINT('',(-2.495E0,-1.585E0,1.5E0));
#410=LINE('',#409,#408);
#411=DIRECTION('',(0.E0,0.E0,1.E0));
#412=VECTOR('',#411,3.E0);
#413=CARTESIAN_POINT('',(1.465E0,-1.585E0,-1.5E0));
#414=LINE('',#413,#412);
#415=DIRECTION('',(-1.E0,0.E0,0.E0));
#416=VECTOR('',#415,1.02E0);
#417=CARTESIAN_POINT('',(2.485E0,-1.585E0,-1.5E0));
#418=LINE('',#417,#416);
#419=DIRECTION('',(0.E0,0.E0,-1.E0));
#420=VECTOR('',#419,3.E0);
#421=CARTESIAN_POINT('',(2.485E0,-1.585E0,1.5E0));
#422=LINE('',#421,#420);
#423=DIRECTION('',(1.E0,0.E0,0.E0));
#424=VECTOR('',#423,1.02E0);
#425=CARTESIAN_POINT('',(1.465E0,-1.585E0,1.5E0));
#426=LINE('',#425,#424);
#427=DIRECTION('',(0.E0,0.E0,-1.E0));
#428=VECTOR('',#427,6.9E0);
#429=CARTESIAN_POINT('',(-5.055E0,-1.205E0,3.47E0));
#430=LINE('',#429,#428);
#431=DIRECTION('',(0.E0,0.E0,-1.E0));
#432=VECTOR('',#431,6.9E0);
#433=CARTESIAN_POINT('',(-2.875E0,-1.205E0,3.47E0));
#434=LINE('',#433,#432);
#435=CARTESIAN_POINT('',(-3.965E0,-1.205E0,0.E0));
#436=DIRECTION('',(0.E0,1.E0,0.E0));
#437=DIRECTION('',(1.E0,0.E0,0.E0));
#438=AXIS2_PLACEMENT_3D('',#435,#436,#437);
#440=CARTESIAN_POINT('',(-3.965E0,-1.205E0,0.E0));
#441=DIRECTION('',(0.E0,1.E0,0.E0));
#442=DIRECTION('',(-1.E0,0.E0,0.E0));
#443=AXIS2_PLACEMENT_3D('',#440,#441,#442);
#445=CARTESIAN_POINT('',(-3.965E0,-5.145E0,0.E0));
#446=DIRECTION('',(0.E0,1.E0,0.E0));
#447=DIRECTION('',(1.E0,0.E0,0.E0));
#448=AXIS2_PLACEMENT_3D('',#445,#446,#447);
#450=CARTESIAN_POINT('',(-3.965E0,1.205E0,0.E0));
#451=DIRECTION('',(0.E0,1.E0,0.E0));
#452=DIRECTION('',(1.E0,0.E0,0.E0));
#453=AXIS2_PLACEMENT_3D('',#450,#451,#452);
#455=CARTESIAN_POINT('',(-3.965E0,1.205E0,0.E0));
#456=DIRECTION('',(0.E0,1.E0,0.E0));
#457=DIRECTION('',(-1.E0,0.E0,0.E0));
#458=AXIS2_PLACEMENT_3D('',#455,#456,#457);
#460=DIRECTION('',(1.E0,0.E0,0.E0));
#461=VECTOR('',#460,2.18E0);
#462=CARTESIAN_POINT('',(-5.055E0,1.205E0,-2.45E0));
#463=LINE('',#462,#461);
#464=DIRECTION('',(0.E0,0.E0,-1.E0));
#465=VECTOR('',#464,5.92E0);
#466=CARTESIAN_POINT('',(-5.055E0,1.205E0,3.47E0));
#467=LINE('',#466,#465);
#468=DIRECTION('',(0.E0,1.E0,0.E0));
#469=VECTOR('',#468,1.092E1);
#470=CARTESIAN_POINT('',(-4.535E0,1.205E0,0.E0));
#471=LINE('',#470,#469);
#472=DIRECTION('',(0.E0,1.E0,0.E0));
#473=VECTOR('',#472,1.092E1);
#474=CARTESIAN_POINT('',(-3.395E0,1.205E0,0.E0));
#475=LINE('',#474,#473);
#476=DIRECTION('',(0.E0,1.E0,0.E0));
#477=VECTOR('',#476,3.94E0);
#478=CARTESIAN_POINT('',(-3.395E0,-5.145E0,0.E0));
#479=LINE('',#478,#477);
#480=CARTESIAN_POINT('',(-3.965E0,-5.145E0,0.E0));
#481=DIRECTION('',(0.E0,-1.E0,0.E0));
#482=DIRECTION('',(1.E0,0.E0,0.E0));
#483=AXIS2_PLACEMENT_3D('',#480,#481,#482);
#485=DIRECTION('',(0.E0,1.E0,0.E0));
#486=VECTOR('',#485,3.94E0);
#487=CARTESIAN_POINT('',(-4.535E0,-5.145E0,0.E0));
#488=LINE('',#487,#486);
#489=DIRECTION('',(-3.568681169914E-1,9.341547768304E-1,0.E0));
#490=VECTOR('',#489,9.527329111561E-1);
#491=CARTESIAN_POINT('',(-3.395E0,1.2125E1,0.E0));
#492=LINE('',#491,#490);
#493=CARTESIAN_POINT('',(-3.965E0,1.2125E1,0.E0));
#494=DIRECTION('',(0.E0,-1.E0,0.E0));
#495=DIRECTION('',(1.E0,0.E0,0.E0));
#496=AXIS2_PLACEMENT_3D('',#493,#494,#495);
#498=DIRECTION('',(3.568681169914E-1,9.341547768304E-1,0.E0));
#499=VECTOR('',#498,9.527329111561E-1);
#500=CARTESIAN_POINT('',(-4.535E0,1.2125E1,0.E0));
#501=LINE('',#500,#499);
#502=CARTESIAN_POINT('',(-3.965E0,1.2125E1,0.E0));
#503=DIRECTION('',(0.E0,1.E0,0.E0));
#504=DIRECTION('',(1.E0,0.E0,0.E0));
#505=AXIS2_PLACEMENT_3D('',#502,#503,#504);
#507=CARTESIAN_POINT('',(-3.965E0,1.3015E1,0.E0));
#508=DIRECTION('',(0.E0,-1.E0,0.E0));
#509=DIRECTION('',(1.E0,0.E0,0.E0));
#510=AXIS2_PLACEMENT_3D('',#507,#508,#509);
#512=CARTESIAN_POINT('',(-3.965E0,1.3015E1,0.E0));
#513=DIRECTION('',(0.E0,1.E0,0.E0));
#514=DIRECTION('',(1.E0,0.E0,0.E0));
#515=AXIS2_PLACEMENT_3D('',#512,#513,#514);
#517=DIRECTION('',(3.568681169914E-1,9.341547768304E-1,0.E0));
#518=VECTOR('',#517,9.527329111561E-1);
#519=CARTESIAN_POINT('',(-3.735E0,-6.035E0,0.E0));
#520=LINE('',#519,#518);
#521=CARTESIAN_POINT('',(-3.965E0,-6.035E0,0.E0));
#522=DIRECTION('',(0.E0,-1.E0,0.E0));
#523=DIRECTION('',(1.E0,0.E0,0.E0));
#524=AXIS2_PLACEMENT_3D('',#521,#522,#523);
#526=DIRECTION('',(-3.568681169914E-1,9.341547768304E-1,0.E0));
#527=VECTOR('',#526,9.527329111561E-1);
#528=CARTESIAN_POINT('',(-4.195E0,-6.035E0,0.E0));
#529=LINE('',#528,#527);
#530=CARTESIAN_POINT('',(-3.965E0,-6.035E0,0.E0));
#531=DIRECTION('',(0.E0,1.E0,0.E0));
#532=DIRECTION('',(1.E0,0.E0,0.E0));
#533=AXIS2_PLACEMENT_3D('',#530,#531,#532);
#535=DIRECTION('',(0.E0,0.E0,-1.E0));
#536=VECTOR('',#535,5.92E0);
#537=CARTESIAN_POINT('',(-2.875E0,1.205E0,3.47E0));
#538=LINE('',#537,#536);
#539=DIRECTION('',(0.E0,1.E0,0.E0));
#540=VECTOR('',#539,3.8E-1);
#541=CARTESIAN_POINT('',(-2.875E0,1.205E0,-2.45E0));
#542=LINE('',#541,#540);
#543=DIRECTION('',(0.E0,-1.E0,0.E0));
#544=VECTOR('',#543,3.8E-1);
#545=CARTESIAN_POINT('',(-5.055E0,1.585E0,-2.45E0));
#546=LINE('',#545,#544);
#547=DIRECTION('',(0.E0,1.E0,0.E0));
#548=VECTOR('',#547,9.12E0);
#549=CARTESIAN_POINT('',(-5.945E0,-1.585E0,-3.43E0));
#550=LINE('',#549,#548);
#551=DIRECTION('',(0.E0,0.E0,-1.E0));
#552=VECTOR('',#551,6.E-1);
#553=CARTESIAN_POINT('',(-5.945E0,7.535E0,-2.83E0));
#554=LINE('',#553,#552);
#555=DIRECTION('',(0.E0,8.660254037844E-1,-5.E-1));
#556=VECTOR('',#555,7.6E-1);
#557=CARTESIAN_POINT('',(-5.945E0,6.876820693124E0,-2.45E0));
#558=LINE('',#557,#556);
#559=DIRECTION('',(0.E0,-1.E0,0.E0));
#560=VECTOR('',#559,5.291820693124E0);
#561=CARTESIAN_POINT('',(-5.945E0,6.876820693124E0,-2.45E0));
#562=LINE('',#561,#560);
#563=DIRECTION('',(0.E0,0.E0,1.E0));
#564=VECTOR('',#563,5.92E0);
#565=CARTESIAN_POINT('',(-5.945E0,1.585E0,-2.45E0));
#566=LINE('',#565,#564);
#567=DIRECTION('',(1.E0,0.E0,0.E0));
#568=VECTOR('',#567,1.189E1);
#569=CARTESIAN_POINT('',(-5.945E0,7.535E0,-3.43E0));
#570=LINE('',#569,#568);
#571=DIRECTION('',(1.E0,0.E0,0.E0));
#572=VECTOR('',#571,1.189E1);
#573=CARTESIAN_POINT('',(-5.945E0,7.535E0,-2.83E0));
#574=LINE('',#573,#572);
#575=DIRECTION('',(0.E0,0.E0,-1.E0));
#576=VECTOR('',#575,6.9E0);
#577=CARTESIAN_POINT('',(-1.095E0,-1.205E0,3.47E0));
#578=LINE('',#577,#576);
#579=DIRECTION('',(0.E0,0.E0,-1.E0));
#580=VECTOR('',#579,6.9E0);
#581=CARTESIAN_POINT('',(1.085E0,-1.205E0,3.47E0));
#582=LINE('',#581,#580);
#583=CARTESIAN_POINT('',(-5.000000000001E-3,-1.205E0,0.E0));
#584=DIRECTION('',(0.E0,1.E0,0.E0));
#585=DIRECTION('',(1.E0,0.E0,0.E0));
#586=AXIS2_PLACEMENT_3D('',#583,#584,#585);
#588=CARTESIAN_POINT('',(-5.000000000001E-3,-1.205E0,0.E0));
#589=DIRECTION('',(0.E0,1.E0,0.E0));
#590=DIRECTION('',(-1.E0,0.E0,0.E0));
#591=AXIS2_PLACEMENT_3D('',#588,#589,#590);
#593=CARTESIAN_POINT('',(-5.000000000001E-3,-5.145E0,0.E0));
#594=DIRECTION('',(0.E0,1.E0,0.E0));
#595=DIRECTION('',(1.E0,0.E0,0.E0));
#596=AXIS2_PLACEMENT_3D('',#593,#594,#595);
#598=CARTESIAN_POINT('',(-5.000000000001E-3,1.205E0,0.E0));
#599=DIRECTION('',(0.E0,1.E0,0.E0));
#600=DIRECTION('',(1.E0,0.E0,0.E0));
#601=AXIS2_PLACEMENT_3D('',#598,#599,#600);
#603=CARTESIAN_POINT('',(-5.000000000001E-3,1.205E0,0.E0));
#604=DIRECTION('',(0.E0,1.E0,0.E0));
#605=DIRECTION('',(-1.E0,0.E0,0.E0));
#606=AXIS2_PLACEMENT_3D('',#603,#604,#605);
#608=DIRECTION('',(1.E0,0.E0,0.E0));
#609=VECTOR('',#608,2.18E0);
#610=CARTESIAN_POINT('',(-1.095E0,1.205E0,-2.45E0));
#611=LINE('',#610,#609);
#612=DIRECTION('',(0.E0,0.E0,-1.E0));
#613=VECTOR('',#612,5.92E0);
#614=CARTESIAN_POINT('',(-1.095E0,1.205E0,3.47E0));
#615=LINE('',#614,#613);
#616=DIRECTION('',(0.E0,1.E0,0.E0));
#617=VECTOR('',#616,1.092E1);
#618=CARTESIAN_POINT('',(-5.75E-1,1.205E0,0.E0));
#619=LINE('',#618,#617);
#620=DIRECTION('',(0.E0,1.E0,0.E0));
#621=VECTOR('',#620,1.092E1);
#622=CARTESIAN_POINT('',(5.65E-1,1.205E0,0.E0));
#623=LINE('',#622,#621);
#624=DIRECTION('',(0.E0,1.E0,0.E0));
#625=VECTOR('',#624,3.94E0);
#626=CARTESIAN_POINT('',(5.65E-1,-5.145E0,0.E0));
#627=LINE('',#626,#625);
#628=CARTESIAN_POINT('',(-5.000000000001E-3,-5.145E0,0.E0));
#629=DIRECTION('',(0.E0,-1.E0,0.E0));
#630=DIRECTION('',(1.E0,0.E0,0.E0));
#631=AXIS2_PLACEMENT_3D('',#628,#629,#630);
#633=DIRECTION('',(0.E0,1.E0,0.E0));
#634=VECTOR('',#633,3.94E0);
#635=CARTESIAN_POINT('',(-5.75E-1,-5.145E0,0.E0));
#636=LINE('',#635,#634);
#637=DIRECTION('',(-3.568681169914E-1,9.341547768304E-1,0.E0));
#638=VECTOR('',#637,9.527329111561E-1);
#639=CARTESIAN_POINT('',(5.65E-1,1.2125E1,0.E0));
#640=LINE('',#639,#638);
#641=CARTESIAN_POINT('',(-5.000000000001E-3,1.2125E1,0.E0));
#642=DIRECTION('',(0.E0,-1.E0,0.E0));
#643=DIRECTION('',(1.E0,0.E0,0.E0));
#644=AXIS2_PLACEMENT_3D('',#641,#642,#643);
#646=DIRECTION('',(3.568681169914E-1,9.341547768304E-1,0.E0));
#647=VECTOR('',#646,9.527329111561E-1);
#648=CARTESIAN_POINT('',(-5.75E-1,1.2125E1,0.E0));
#649=LINE('',#648,#647);
#650=CARTESIAN_POINT('',(-5.000000000001E-3,1.2125E1,0.E0));
#651=DIRECTION('',(0.E0,1.E0,0.E0));
#652=DIRECTION('',(1.E0,0.E0,0.E0));
#653=AXIS2_PLACEMENT_3D('',#650,#651,#652);
#655=CARTESIAN_POINT('',(-5.000000000001E-3,1.3015E1,0.E0));
#656=DIRECTION('',(0.E0,-1.E0,0.E0));
#657=DIRECTION('',(1.E0,0.E0,0.E0));
#658=AXIS2_PLACEMENT_3D('',#655,#656,#657);
#660=CARTESIAN_POINT('',(-5.000000000001E-3,1.3015E1,0.E0));
#661=DIRECTION('',(0.E0,1.E0,0.E0));
#662=DIRECTION('',(1.E0,0.E0,0.E0));
#663=AXIS2_PLACEMENT_3D('',#660,#661,#662);
#665=DIRECTION('',(3.568681169914E-1,9.341547768304E-1,0.E0));
#666=VECTOR('',#665,9.527329111561E-1);
#667=CARTESIAN_POINT('',(2.25E-1,-6.035E0,0.E0));
#668=LINE('',#667,#666);
#669=CARTESIAN_POINT('',(-5.000000000001E-3,-6.035E0,0.E0));
#670=DIRECTION('',(0.E0,-1.E0,0.E0));
#671=DIRECTION('',(1.E0,0.E0,0.E0));
#672=AXIS2_PLACEMENT_3D('',#669,#670,#671);
#674=DIRECTION('',(-3.568681169914E-1,9.341547768304E-1,0.E0));
#675=VECTOR('',#674,9.527329111561E-1);
#676=CARTESIAN_POINT('',(-2.35E-1,-6.035E0,0.E0));
#677=LINE('',#676,#675);
#678=CARTESIAN_POINT('',(-5.000000000001E-3,-6.035E0,0.E0));
#679=DIRECTION('',(0.E0,1.E0,0.E0));
#680=DIRECTION('',(1.E0,0.E0,0.E0));
#681=AXIS2_PLACEMENT_3D('',#678,#679,#680);
#683=DIRECTION('',(0.E0,1.E0,0.E0));
#684=VECTOR('',#683,3.8E-1);
#685=CARTESIAN_POINT('',(1.085E0,1.205E0,-2.45E0));
#686=LINE('',#685,#684);
#687=DIRECTION('',(0.E0,0.E0,-1.E0));
#688=VECTOR('',#687,5.92E0);
#689=CARTESIAN_POINT('',(1.085E0,1.205E0,3.47E0));
#690=LINE('',#689,#688);
#691=DIRECTION('',(0.E0,-1.E0,0.E0));
#692=VECTOR('',#691,3.8E-1);
#693=CARTESIAN_POINT('',(-1.095E0,1.585E0,-2.45E0));
#694=LINE('',#693,#692);
#695=DIRECTION('',(0.E0,-1.E0,0.E0));
#696=VECTOR('',#695,3.17E0);
#697=CARTESIAN_POINT('',(-2.495E0,1.585E0,-1.5E0));
#698=LINE('',#697,#696);
#699=DIRECTION('',(0.E0,-1.E0,0.E0));
#700=VECTOR('',#699,3.17E0);
#701=CARTESIAN_POINT('',(-2.495E0,1.585E0,1.5E0));
#702=LINE('',#701,#700);
#703=DIRECTION('',(0.E0,-1.E0,0.E0));
#704=VECTOR('',#703,3.17E0);
#705=CARTESIAN_POINT('',(-1.475E0,1.585E0,1.5E0));
#706=LINE('',#705,#704);
#707=DIRECTION('',(0.E0,-1.E0,0.E0));
#708=VECTOR('',#707,3.17E0);
#709=CARTESIAN_POINT('',(-1.475E0,1.585E0,-1.5E0));
#710=LINE('',#709,#708);
#711=DIRECTION('',(0.E0,-1.E0,0.E0));
#712=VECTOR('',#711,3.17E0);
#713=CARTESIAN_POINT('',(1.465E0,1.585E0,-1.5E0));
#714=LINE('',#713,#712);
#715=DIRECTION('',(0.E0,-1.E0,0.E0));
#716=VECTOR('',#715,3.17E0);
#717=CARTESIAN_POINT('',(1.465E0,1.585E0,1.5E0));
#718=LINE('',#717,#716);
#719=DIRECTION('',(0.E0,-1.E0,0.E0));
#720=VECTOR('',#719,3.17E0);
#721=CARTESIAN_POINT('',(2.485E0,1.585E0,1.5E0));
#722=LINE('',#721,#720);
#723=DIRECTION('',(0.E0,-1.E0,0.E0));
#724=VECTOR('',#723,3.17E0);
#725=CARTESIAN_POINT('',(2.485E0,1.585E0,-1.5E0));
#726=LINE('',#725,#724);
#727=DIRECTION('',(3.568681169914E-1,9.341547768304E-1,0.E0));
#728=VECTOR('',#727,9.527329111561E-1);
#729=CARTESIAN_POINT('',(4.185E0,-6.035E0,0.E0));
#730=LINE('',#729,#728);
#731=CARTESIAN_POINT('',(3.955E0,-6.035E0,0.E0));
#732=DIRECTION('',(0.E0,-1.E0,0.E0));
#733=DIRECTION('',(1.E0,0.E0,0.E0));
#734=AXIS2_PLACEMENT_3D('',#731,#732,#733);
#736=DIRECTION('',(-3.568681169914E-1,9.341547768304E-1,0.E0));
#737=VECTOR('',#736,9.527329111561E-1);
#738=CARTESIAN_POINT('',(3.725E0,-6.035E0,0.E0));
#739=LINE('',#738,#737);
#740=CARTESIAN_POINT('',(3.955E0,-6.035E0,0.E0));
#741=DIRECTION('',(0.E0,1.E0,0.E0));
#742=DIRECTION('',(1.E0,0.E0,0.E0));
#743=AXIS2_PLACEMENT_3D('',#740,#741,#742);
#745=CARTESIAN_POINT('',(-5.945E0,1.585E0,3.47E0));
#746=CARTESIAN_POINT('',(-5.945E0,-1.585E0,3.47E0));
#747=VERTEX_POINT('',#745);
#748=VERTEX_POINT('',#746);
#749=CARTESIAN_POINT('',(5.945E0,-1.585E0,3.47E0));
#750=CARTESIAN_POINT('',(5.945E0,1.585E0,3.47E0));
#751=VERTEX_POINT('',#749);
#752=VERTEX_POINT('',#750);
#753=CARTESIAN_POINT('',(-5.945E0,-1.585E0,-3.43E0));
#754=VERTEX_POINT('',#753);
#755=CARTESIAN_POINT('',(5.945E0,-1.585E0,-3.43E0));
#756=VERTEX_POINT('',#755);
#757=CARTESIAN_POINT('',(-2.875E0,-1.585E0,-3.43E0));
#758=CARTESIAN_POINT('',(-2.875E0,-1.205E0,-3.43E0));
#759=VERTEX_POINT('',#757);
#760=VERTEX_POINT('',#758);
#761=CARTESIAN_POINT('',(-5.055E0,-1.205E0,-3.43E0));
#762=VERTEX_POINT('',#761);
#763=CARTESIAN_POINT('',(-5.055E0,-1.585E0,-3.43E0));
#764=VERTEX_POINT('',#763);
#765=CARTESIAN_POINT('',(-5.055E0,1.585E0,3.47E0));
#766=CARTESIAN_POINT('',(-5.055E0,1.205E0,3.47E0));
#767=VERTEX_POINT('',#765);
#768=VERTEX_POINT('',#766);
#769=CARTESIAN_POINT('',(-2.875E0,1.205E0,3.47E0));
#770=VERTEX_POINT('',#769);
#771=CARTESIAN_POINT('',(-2.875E0,1.585E0,3.47E0));
#772=VERTEX_POINT('',#771);
#773=CARTESIAN_POINT('',(-2.875E0,-1.585E0,3.47E0));
#774=CARTESIAN_POINT('',(-2.875E0,-1.205E0,3.47E0));
#775=VERTEX_POINT('',#773);
#776=VERTEX_POINT('',#774);
#777=CARTESIAN_POINT('',(-5.055E0,-1.205E0,3.47E0));
#778=VERTEX_POINT('',#777);
#779=CARTESIAN_POINT('',(-5.055E0,-1.585E0,3.47E0));
#780=VERTEX_POINT('',#779);
#781=CARTESIAN_POINT('',(-2.495E0,-1.585E0,-1.5E0));
#782=CARTESIAN_POINT('',(-2.495E0,-1.585E0,1.5E0));
#783=VERTEX_POINT('',#781);
#784=VERTEX_POINT('',#782);
#785=CARTESIAN_POINT('',(-1.475E0,-1.585E0,1.5E0));
#786=VERTEX_POINT('',#785);
#787=CARTESIAN_POINT('',(-1.475E0,-1.585E0,-1.5E0));
#788=VERTEX_POINT('',#787);
#789=CARTESIAN_POINT('',(-2.495E0,1.585E0,-1.5E0));
#790=CARTESIAN_POINT('',(-2.495E0,1.585E0,1.5E0));
#791=VERTEX_POINT('',#789);
#792=VERTEX_POINT('',#790);
#793=CARTESIAN_POINT('',(-1.475E0,1.585E0,1.5E0));
#794=VERTEX_POINT('',#793);
#795=CARTESIAN_POINT('',(-1.475E0,1.585E0,-1.5E0));
#796=VERTEX_POINT('',#795);
#797=CARTESIAN_POINT('',(5.945E0,7.535E0,-3.43E0));
#798=CARTESIAN_POINT('',(5.945E0,7.535E0,-2.83E0));
#799=VERTEX_POINT('',#797);
#800=VERTEX_POINT('',#798);
#801=CARTESIAN_POINT('',(5.945E0,6.876820693124E0,-2.45E0));
#802=VERTEX_POINT('',#801);
#803=CARTESIAN_POINT('',(-5.945E0,7.535E0,-2.83E0));
#804=CARTESIAN_POINT('',(-5.945E0,7.535E0,-3.43E0));
#805=VERTEX_POINT('',#803);
#806=VERTEX_POINT('',#804);
#807=CARTESIAN_POINT('',(-5.945E0,6.876820693124E0,-2.45E0));
#808=VERTEX_POINT('',#807);
#809=CARTESIAN_POINT('',(5.945E0,1.585E0,-2.45E0));
#810=CARTESIAN_POINT('',(5.045E0,1.585E0,-2.45E0));
#811=VERTEX_POINT('',#809);
#812=VERTEX_POINT('',#810);
#813=CARTESIAN_POINT('',(-5.945E0,1.585E0,-2.45E0));
#814=VERTEX_POINT('',#813);
#815=CARTESIAN_POINT('',(2.865E0,1.585E0,-2.45E0));
#816=CARTESIAN_POINT('',(1.085E0,1.585E0,-2.45E0));
#817=VERTEX_POINT('',#815);
#818=VERTEX_POINT('',#816);
#819=CARTESIAN_POINT('',(-5.055E0,1.585E0,-2.45E0));
#820=VERTEX_POINT('',#819);
#821=CARTESIAN_POINT('',(-2.875E0,1.585E0,-2.45E0));
#822=VERTEX_POINT('',#821);
#823=CARTESIAN_POINT('',(-3.735E0,-6.035E0,0.E0));
#824=CARTESIAN_POINT('',(-3.395E0,-5.145E0,0.E0));
#825=VERTEX_POINT('',#823);
#826=VERTEX_POINT('',#824);
#827=CARTESIAN_POINT('',(-3.395E0,1.2125E1,0.E0));
#828=CARTESIAN_POINT('',(-3.735E0,1.3015E1,0.E0));
#829=VERTEX_POINT('',#827);
#830=VERTEX_POINT('',#828);
#831=CARTESIAN_POINT('',(-4.195E0,-6.035E0,0.E0));
#832=CARTESIAN_POINT('',(-4.535E0,-5.145E0,0.E0));
#833=VERTEX_POINT('',#831);
#834=VERTEX_POINT('',#832);
#835=CARTESIAN_POINT('',(-4.535E0,1.2125E1,0.E0));
#836=CARTESIAN_POINT('',(-4.195E0,1.3015E1,0.E0));
#837=VERTEX_POINT('',#835);
#838=VERTEX_POINT('',#836);
#839=CARTESIAN_POINT('',(-3.395E0,1.205E0,0.E0));
#840=CARTESIAN_POINT('',(-4.535E0,1.205E0,0.E0));
#841=VERTEX_POINT('',#839);
#842=VERTEX_POINT('',#840);
#843=CARTESIAN_POINT('',(-3.395E0,-1.205E0,0.E0));
#844=CARTESIAN_POINT('',(-4.535E0,-1.205E0,0.E0));
#845=VERTEX_POINT('',#843);
#846=VERTEX_POINT('',#844);
#847=CARTESIAN_POINT('',(-5.055E0,1.205E0,-2.45E0));
#848=VERTEX_POINT('',#847);
#849=CARTESIAN_POINT('',(-2.875E0,1.205E0,-2.45E0));
#850=VERTEX_POINT('',#849);
#851=CARTESIAN_POINT('',(1.085E0,-1.585E0,-3.43E0));
#852=CARTESIAN_POINT('',(1.085E0,-1.205E0,-3.43E0));
#853=VERTEX_POINT('',#851);
#854=VERTEX_POINT('',#852);
#855=CARTESIAN_POINT('',(-1.095E0,-1.205E0,-3.43E0));
#856=VERTEX_POINT('',#855);
#857=CARTESIAN_POINT('',(-1.095E0,-1.585E0,-3.43E0));
#858=VERTEX_POINT('',#857);
#859=CARTESIAN_POINT('',(-1.095E0,1.585E0,3.47E0));
#860=CARTESIAN_POINT('',(-1.095E0,1.205E0,3.47E0));
#861=VERTEX_POINT('',#859);
#862=VERTEX_POINT('',#860);
#863=CARTESIAN_POINT('',(1.085E0,1.205E0,3.47E0));
#864=VERTEX_POINT('',#863);
#865=CARTESIAN_POINT('',(1.085E0,1.585E0,3.47E0));
#866=VERTEX_POINT('',#865);
#867=CARTESIAN_POINT('',(1.085E0,-1.585E0,3.47E0));
#868=CARTESIAN_POINT('',(1.085E0,-1.205E0,3.47E0));
#869=VERTEX_POINT('',#867);
#870=VERTEX_POINT('',#868);
#871=CARTESIAN_POINT('',(-1.095E0,-1.205E0,3.47E0));
#872=VERTEX_POINT('',#871);
#873=CARTESIAN_POINT('',(-1.095E0,-1.585E0,3.47E0));
#874=VERTEX_POINT('',#873);
#875=CARTESIAN_POINT('',(5.045E0,-1.585E0,-3.43E0));
#876=CARTESIAN_POINT('',(5.045E0,-1.205E0,-3.43E0));
#877=VERTEX_POINT('',#875);
#878=VERTEX_POINT('',#876);
#879=CARTESIAN_POINT('',(2.865E0,-1.205E0,-3.43E0));
#880=VERTEX_POINT('',#879);
#881=CARTESIAN_POINT('',(2.865E0,-1.585E0,-3.43E0));
#882=VERTEX_POINT('',#881);
#883=CARTESIAN_POINT('',(2.865E0,1.585E0,3.47E0));
#884=CARTESIAN_POINT('',(2.865E0,1.205E0,3.47E0));
#885=VERTEX_POINT('',#883);
#886=VERTEX_POINT('',#884);
#887=CARTESIAN_POINT('',(5.045E0,1.205E0,3.47E0));
#888=VERTEX_POINT('',#887);
#889=CARTESIAN_POINT('',(5.045E0,1.585E0,3.47E0));
#890=VERTEX_POINT('',#889);
#891=CARTESIAN_POINT('',(5.045E0,-1.585E0,3.47E0));
#892=CARTESIAN_POINT('',(5.045E0,-1.205E0,3.47E0));
#893=VERTEX_POINT('',#891);
#894=VERTEX_POINT('',#892);
#895=CARTESIAN_POINT('',(2.865E0,-1.205E0,3.47E0));
#896=VERTEX_POINT('',#895);
#897=CARTESIAN_POINT('',(2.865E0,-1.585E0,3.47E0));
#898=VERTEX_POINT('',#897);
#899=CARTESIAN_POINT('',(-1.095E0,1.585E0,-2.45E0));
#900=VERTEX_POINT('',#899);
#901=CARTESIAN_POINT('',(-1.095E0,1.205E0,-2.45E0));
#902=VERTEX_POINT('',#901);
#903=CARTESIAN_POINT('',(1.085E0,1.205E0,-2.45E0));
#904=VERTEX_POINT('',#903);
#905=CARTESIAN_POINT('',(2.865E0,1.205E0,-2.45E0));
#906=VERTEX_POINT('',#905);
#907=CARTESIAN_POINT('',(5.045E0,1.205E0,-2.45E0));
#908=VERTEX_POINT('',#907);
#909=CARTESIAN_POINT('',(2.25E-1,-6.035E0,0.E0));
#910=CARTESIAN_POINT('',(5.65E-1,-5.145E0,0.E0));
#911=VERTEX_POINT('',#909);
#912=VERTEX_POINT('',#910);
#913=CARTESIAN_POINT('',(5.65E-1,1.2125E1,0.E0));
#914=CARTESIAN_POINT('',(2.25E-1,1.3015E1,0.E0));
#915=VERTEX_POINT('',#913);
#916=VERTEX_POINT('',#914);
#917=CARTESIAN_POINT('',(-2.35E-1,-6.035E0,0.E0));
#918=CARTESIAN_POINT('',(-5.75E-1,-5.145E0,0.E0));
#919=VERTEX_POINT('',#917);
#920=VERTEX_POINT('',#918);
#921=CARTESIAN_POINT('',(-5.75E-1,1.2125E1,0.E0));
#922=CARTESIAN_POINT('',(-2.35E-1,1.3015E1,0.E0));
#923=VERTEX_POINT('',#921);
#924=VERTEX_POINT('',#922);
#925=CARTESIAN_POINT('',(5.65E-1,1.205E0,0.E0));
#926=CARTESIAN_POINT('',(-5.75E-1,1.205E0,0.E0));
#927=VERTEX_POINT('',#925);
#928=VERTEX_POINT('',#926);
#929=CARTESIAN_POINT('',(5.65E-1,-1.205E0,0.E0));
#930=CARTESIAN_POINT('',(-5.75E-1,-1.205E0,0.E0));
#931=VERTEX_POINT('',#929);
#932=VERTEX_POINT('',#930);
#933=CARTESIAN_POINT('',(4.185E0,-6.035E0,0.E0));
#934=CARTESIAN_POINT('',(4.525E0,-5.145E0,0.E0));
#935=VERTEX_POINT('',#933);
#936=VERTEX_POINT('',#934);
#937=CARTESIAN_POINT('',(4.525E0,1.2125E1,0.E0));
#938=CARTESIAN_POINT('',(4.185E0,1.3015E1,0.E0));
#939=VERTEX_POINT('',#937);
#940=VERTEX_POINT('',#938);
#941=CARTESIAN_POINT('',(3.725E0,-6.035E0,0.E0));
#942=CARTESIAN_POINT('',(3.385E0,-5.145E0,0.E0));
#943=VERTEX_POINT('',#941);
#944=VERTEX_POINT('',#942);
#945=CARTESIAN_POINT('',(3.385E0,1.2125E1,0.E0));
#946=CARTESIAN_POINT('',(3.725E0,1.3015E1,0.E0));
#947=VERTEX_POINT('',#945);
#948=VERTEX_POINT('',#946);
#949=CARTESIAN_POINT('',(4.525E0,1.205E0,0.E0));
#950=CARTESIAN_POINT('',(3.385E0,1.205E0,0.E0));
#951=VERTEX_POINT('',#949);
#952=VERTEX_POINT('',#950);
#953=CARTESIAN_POINT('',(4.525E0,-1.205E0,0.E0));
#954=CARTESIAN_POINT('',(3.385E0,-1.205E0,0.E0));
#955=VERTEX_POINT('',#953);
#956=VERTEX_POINT('',#954);
#957=CARTESIAN_POINT('',(1.465E0,-1.585E0,-1.5E0));
#958=CARTESIAN_POINT('',(1.465E0,-1.585E0,1.5E0));
#959=VERTEX_POINT('',#957);
#960=VERTEX_POINT('',#958);
#961=CARTESIAN_POINT('',(2.485E0,-1.585E0,1.5E0));
#962=VERTEX_POINT('',#961);
#963=CARTESIAN_POINT('',(2.485E0,-1.585E0,-1.5E0));
#964=VERTEX_POINT('',#963);
#965=CARTESIAN_POINT('',(1.465E0,1.585E0,-1.5E0));
#966=CARTESIAN_POINT('',(1.465E0,1.585E0,1.5E0));
#967=VERTEX_POINT('',#965);
#968=VERTEX_POINT('',#966);
#969=CARTESIAN_POINT('',(2.485E0,1.585E0,1.5E0));
#970=VERTEX_POINT('',#969);
#971=CARTESIAN_POINT('',(2.485E0,1.585E0,-1.5E0));
#972=VERTEX_POINT('',#971);
#973=CARTESIAN_POINT('',(0.E0,0.E0,-3.43E0));
#974=DIRECTION('',(0.E0,0.E0,1.E0));
#975=DIRECTION('',(1.E0,0.E0,0.E0));
#976=AXIS2_PLACEMENT_3D('',#973,#974,#975);
#977=PLANE('',#976);
#979=ORIENTED_EDGE('',*,*,#978,.T.);
#981=ORIENTED_EDGE('',*,*,#980,.F.);
#983=ORIENTED_EDGE('',*,*,#982,.F.);
#985=ORIENTED_EDGE('',*,*,#984,.T.);
#987=ORIENTED_EDGE('',*,*,#986,.T.);
#989=ORIENTED_EDGE('',*,*,#988,.F.);
#991=ORIENTED_EDGE('',*,*,#990,.F.);
#993=ORIENTED_EDGE('',*,*,#992,.T.);
#995=ORIENTED_EDGE('',*,*,#994,.T.);
#997=ORIENTED_EDGE('',*,*,#996,.F.);
#999=ORIENTED_EDGE('',*,*,#998,.F.);
#1001=ORIENTED_EDGE('',*,*,#1000,.T.);
#1003=ORIENTED_EDGE('',*,*,#1002,.T.);
#1005=ORIENTED_EDGE('',*,*,#1004,.F.);
#1007=ORIENTED_EDGE('',*,*,#1006,.F.);
#1009=ORIENTED_EDGE('',*,*,#1008,.T.);
#1010=EDGE_LOOP('',(#979,#981,#983,#985,#987,#989,#991,#993,#995,#997,#999,
#1001,#1003,#1005,#1007,#1009));
#1011=FACE_OUTER_BOUND('',#1010,.F.);
#1012=ADVANCED_FACE('',(#1011),#977,.F.);
#1013=CARTESIAN_POINT('',(5.945E0,-1.585E0,-3.43E0));
#1014=DIRECTION('',(1.E0,0.E0,0.E0));
#1015=DIRECTION('',(0.E0,1.E0,0.E0));
#1016=AXIS2_PLACEMENT_3D('',#1013,#1014,#1015);
#1017=PLANE('',#1016);
#1019=ORIENTED_EDGE('',*,*,#1018,.F.);
#1021=ORIENTED_EDGE('',*,*,#1020,.F.);
#1023=ORIENTED_EDGE('',*,*,#1022,.F.);
#1025=ORIENTED_EDGE('',*,*,#1024,.F.);
#1026=ORIENTED_EDGE('',*,*,#978,.F.);
#1028=ORIENTED_EDGE('',*,*,#1027,.T.);
#1030=ORIENTED_EDGE('',*,*,#1029,.T.);
#1031=EDGE_LOOP('',(#1019,#1021,#1023,#1025,#1026,#1028,#1030));
#1032=FACE_OUTER_BOUND('',#1031,.F.);
#1033=ADVANCED_FACE('',(#1032),#1017,.T.);
#1034=CARTESIAN_POINT('',(5.945E0,1.585E0,-3.43E0));
#1035=DIRECTION('',(0.E0,1.E0,0.E0));
#1036=DIRECTION('',(-1.E0,0.E0,0.E0));
#1037=AXIS2_PLACEMENT_3D('',#1034,#1035,#1036);
#1038=PLANE('',#1037);
#1040=ORIENTED_EDGE('',*,*,#1039,.F.);
#1041=ORIENTED_EDGE('',*,*,#1018,.T.);
#1043=ORIENTED_EDGE('',*,*,#1042,.T.);
#1045=ORIENTED_EDGE('',*,*,#1044,.F.);
#1046=EDGE_LOOP('',(#1040,#1041,#1043,#1045));
#1047=FACE_OUTER_BOUND('',#1046,.F.);
#1048=ADVANCED_FACE('',(#1047),#1038,.T.);
#1049=CARTESIAN_POINT('',(5.945E0,1.585E0,-3.43E0));
#1050=DIRECTION('',(0.E0,1.E0,0.E0));
#1051=DIRECTION('',(-1.E0,0.E0,0.E0));
#1052=AXIS2_PLACEMENT_3D('',#1049,#1050,#1051);
#1053=PLANE('',#1052);
#1055=ORIENTED_EDGE('',*,*,#1054,.F.);
#1057=ORIENTED_EDGE('',*,*,#1056,.F.);
#1059=ORIENTED_EDGE('',*,*,#1058,.T.);
#1061=ORIENTED_EDGE('',*,*,#1060,.T.);
#1062=EDGE_LOOP('',(#1055,#1057,#1059,#1061));
#1063=FACE_OUTER_BOUND('',#1062,.F.);
#1064=ADVANCED_FACE('',(#1063),#1053,.T.);
#1065=CARTESIAN_POINT('',(5.945E0,1.585E0,-3.43E0));
#1066=DIRECTION('',(0.E0,1.E0,0.E0));
#1067=DIRECTION('',(-1.E0,0.E0,0.E0));
#1068=AXIS2_PLACEMENT_3D('',#1065,#1066,#1067);
#1069=PLANE('',#1068);
#1071=ORIENTED_EDGE('',*,*,#1070,.F.);
#1073=ORIENTED_EDGE('',*,*,#1072,.T.);
#1075=ORIENTED_EDGE('',*,*,#1074,.T.);
#1077=ORIENTED_EDGE('',*,*,#1076,.F.);
#1078=EDGE_LOOP('',(#1071,#1073,#1075,#1077));
#1079=FACE_OUTER_BOUND('',#1078,.F.);
#1081=ORIENTED_EDGE('',*,*,#1080,.T.);
#1083=ORIENTED_EDGE('',*,*,#1082,.T.);
#1085=ORIENTED_EDGE('',*,*,#1084,.T.);
#1087=ORIENTED_EDGE('',*,*,#1086,.T.);
#1088=EDGE_LOOP('',(#1081,#1083,#1085,#1087));
#1089=FACE_BOUND('',#1088,.F.);
#1090=ADVANCED_FACE('',(#1079,#1089),#1069,.T.);
#1091=CARTESIAN_POINT('',(5.945E0,1.585E0,-3.43E0));
#1092=DIRECTION('',(0.E0,1.E0,0.E0));
#1093=DIRECTION('',(-1.E0,0.E0,0.E0));
#1094=AXIS2_PLACEMENT_3D('',#1091,#1092,#1093);
#1095=PLANE('',#1094);
#1097=ORIENTED_EDGE('',*,*,#1096,.F.);
#1099=ORIENTED_EDGE('',*,*,#1098,.F.);
#1101=ORIENTED_EDGE('',*,*,#1100,.T.);
#1103=ORIENTED_EDGE('',*,*,#1102,.T.);
#1104=EDGE_LOOP('',(#1097,#1099,#1101,#1103));
#1105=FACE_OUTER_BOUND('',#1104,.F.);
#1107=ORIENTED_EDGE('',*,*,#1106,.T.);
#1109=ORIENTED_EDGE('',*,*,#1108,.T.);
#1111=ORIENTED_EDGE('',*,*,#1110,.T.);
#1113=ORIENTED_EDGE('',*,*,#1112,.T.);
#1114=EDGE_LOOP('',(#1107,#1109,#1111,#1113));
#1115=FACE_BOUND('',#1114,.F.);
#1116=ADVANCED_FACE('',(#1105,#1115),#1095,.T.);
#1117=CARTESIAN_POINT('',(5.945E0,6.876820693124E0,-2.45E0));
#1118=DIRECTION('',(0.E0,0.E0,1.E0));
#1119=DIRECTION('',(0.E0,-1.E0,0.E0));
#1120=AXIS2_PLACEMENT_3D('',#1117,#1118,#1119);
#1121=PLANE('',#1120);
#1122=ORIENTED_EDGE('',*,*,#1039,.T.);
#1124=ORIENTED_EDGE('',*,*,#1123,.F.);
#1126=ORIENTED_EDGE('',*,*,#1125,.F.);
#1128=ORIENTED_EDGE('',*,*,#1127,.F.);
#1129=ORIENTED_EDGE('',*,*,#1070,.T.);
#1131=ORIENTED_EDGE('',*,*,#1130,.F.);
#1133=ORIENTED_EDGE('',*,*,#1132,.F.);
#1135=ORIENTED_EDGE('',*,*,#1134,.F.);
#1136=ORIENTED_EDGE('',*,*,#1098,.T.);
#1138=ORIENTED_EDGE('',*,*,#1137,.F.);
#1140=ORIENTED_EDGE('',*,*,#1139,.F.);
#1142=ORIENTED_EDGE('',*,*,#1141,.F.);
#1143=ORIENTED_EDGE('',*,*,#1056,.T.);
#1145=ORIENTED_EDGE('',*,*,#1144,.F.);
#1147=ORIENTED_EDGE('',*,*,#1146,.T.);
#1148=ORIENTED_EDGE('',*,*,#1020,.T.);
#1149=EDGE_LOOP('',(#1122,#1124,#1126,#1128,#1129,#1131,#1133,#1135,#1136,#1138,
#1140,#1142,#1143,#1145,#1147,#1148));
#1150=FACE_OUTER_BOUND('',#1149,.F.);
#1151=ADVANCED_FACE('',(#1150),#1121,.T.);
#1152=CARTESIAN_POINT('',(5.045E0,1.205E0,3.47E0));
#1153=DIRECTION('',(1.E0,0.E0,0.E0));
#1154=DIRECTION('',(0.E0,1.E0,0.E0));
#1155=AXIS2_PLACEMENT_3D('',#1152,#1153,#1154);
#1156=PLANE('',#1155);
#1157=ORIENTED_EDGE('',*,*,#1123,.T.);
#1158=ORIENTED_EDGE('',*,*,#1044,.T.);
#1160=ORIENTED_EDGE('',*,*,#1159,.T.);
#1162=ORIENTED_EDGE('',*,*,#1161,.T.);
#1163=EDGE_LOOP('',(#1157,#1158,#1160,#1162));
#1164=FACE_OUTER_BOUND('',#1163,.F.);
#1165=ADVANCED_FACE('',(#1164),#1156,.F.);
#1166=CARTESIAN_POINT('',(0.E0,0.E0,3.47E0));
#1167=DIRECTION('',(0.E0,0.E0,1.E0));
#1168=DIRECTION('',(1.E0,0.E0,0.E0));
#1169=AXIS2_PLACEMENT_3D('',#1166,#1167,#1168);
#1170=PLANE('',#1169);
#1172=ORIENTED_EDGE('',*,*,#1171,.T.);
#1174=ORIENTED_EDGE('',*,*,#1173,.T.);
#1175=ORIENTED_EDGE('',*,*,#1159,.F.);
#1176=ORIENTED_EDGE('',*,*,#1042,.F.);
#1177=ORIENTED_EDGE('',*,*,#1029,.F.);
#1179=ORIENTED_EDGE('',*,*,#1178,.F.);
#1181=ORIENTED_EDGE('',*,*,#1180,.T.);
#1183=ORIENTED_EDGE('',*,*,#1182,.T.);
#1185=ORIENTED_EDGE('',*,*,#1184,.F.);
#1187=ORIENTED_EDGE('',*,*,#1186,.F.);
#1189=ORIENTED_EDGE('',*,*,#1188,.T.);
#1191=ORIENTED_EDGE('',*,*,#1190,.T.);
#1193=ORIENTED_EDGE('',*,*,#1192,.F.);
#1195=ORIENTED_EDGE('',*,*,#1194,.F.);
#1197=ORIENTED_EDGE('',*,*,#1196,.T.);
#1199=ORIENTED_EDGE('',*,*,#1198,.T.);
#1201=ORIENTED_EDGE('',*,*,#1200,.F.);
#1203=ORIENTED_EDGE('',*,*,#1202,.F.);
#1205=ORIENTED_EDGE('',*,*,#1204,.F.);
#1206=ORIENTED_EDGE('',*,*,#1060,.F.);
#1208=ORIENTED_EDGE('',*,*,#1207,.T.);
#1210=ORIENTED_EDGE('',*,*,#1209,.T.);
#1212=ORIENTED_EDGE('',*,*,#1211,.F.);
#1213=ORIENTED_EDGE('',*,*,#1102,.F.);
#1215=ORIENTED_EDGE('',*,*,#1214,.T.);
#1217=ORIENTED_EDGE('',*,*,#1216,.T.);
#1219=ORIENTED_EDGE('',*,*,#1218,.F.);
#1220=ORIENTED_EDGE('',*,*,#1074,.F.);
#1221=EDGE_LOOP('',(#1172,#1174,#1175,#1176,#1177,#1179,#1181,#1183,#1185,#1187,
#1189,#1191,#1193,#1195,#1197,#1199,#1201,#1203,#1205,#1206,#1208,#1210,#1212,
#1213,#1215,#1217,#1219,#1220));
#1222=FACE_OUTER_BOUND('',#1221,.F.);
#1223=ADVANCED_FACE('',(#1222),#1170,.T.);
#1224=CARTESIAN_POINT('',(2.865E0,1.585E0,3.47E0));
#1225=DIRECTION('',(-1.E0,0.E0,0.E0));
#1226=DIRECTION('',(0.E0,-1.E0,0.E0));
#1227=AXIS2_PLACEMENT_3D('',#1224,#1225,#1226);
#1228=PLANE('',#1227);
#1229=ORIENTED_EDGE('',*,*,#1127,.T.);
#1231=ORIENTED_EDGE('',*,*,#1230,.F.);
#1232=ORIENTED_EDGE('',*,*,#1171,.F.);
#1233=ORIENTED_EDGE('',*,*,#1072,.F.);
#1234=EDGE_LOOP('',(#1229,#1231,#1232,#1233));
#1235=FACE_OUTER_BOUND('',#1234,.F.);
#1236=ADVANCED_FACE('',(#1235),#1228,.F.);
#1237=CARTESIAN_POINT('',(2.865E0,1.205E0,3.47E0));
#1238=DIRECTION('',(0.E0,-1.E0,0.E0));
#1239=DIRECTION('',(1.E0,0.E0,0.E0));
#1240=AXIS2_PLACEMENT_3D('',#1237,#1238,#1239);
#1241=PLANE('',#1240);
#1242=ORIENTED_EDGE('',*,*,#1125,.T.);
#1243=ORIENTED_EDGE('',*,*,#1161,.F.);
#1244=ORIENTED_EDGE('',*,*,#1173,.F.);
#1245=ORIENTED_EDGE('',*,*,#1230,.T.);
#1246=EDGE_LOOP('',(#1242,#1243,#1244,#1245));
#1247=FACE_OUTER_BOUND('',#1246,.F.);
#1249=ORIENTED_EDGE('',*,*,#1248,.T.);
#1251=ORIENTED_EDGE('',*,*,#1250,.T.);
#1252=EDGE_LOOP('',(#1249,#1251));
#1253=FACE_BOUND('',#1252,.F.);
#1254=ADVANCED_FACE('',(#1247,#1253),#1241,.F.);
#1255=CARTESIAN_POINT('',(3.955E0,-6.9875E0,0.E0));
#1256=DIRECTION('',(0.E0,1.E0,0.E0));
#1257=DIRECTION('',(1.E0,0.E0,0.E0));
#1258=AXIS2_PLACEMENT_3D('',#1255,#1256,#1257);
#1259=CYLINDRICAL_SURFACE('',#1258,5.7E-1);
#1260=ORIENTED_EDGE('',*,*,#1248,.F.);
#1262=ORIENTED_EDGE('',*,*,#1261,.T.);
#1264=ORIENTED_EDGE('',*,*,#1263,.T.);
#1266=ORIENTED_EDGE('',*,*,#1265,.F.);
#1267=EDGE_LOOP('',(#1260,#1262,#1264,#1266));
#1268=FACE_OUTER_BOUND('',#1267,.F.);
#1269=ADVANCED_FACE('',(#1268),#1259,.T.);
#1270=CARTESIAN_POINT('',(3.955E0,-6.9875E0,0.E0));
#1271=DIRECTION('',(0.E0,1.E0,0.E0));
#1272=DIRECTION('',(1.E0,0.E0,0.E0));
#1273=AXIS2_PLACEMENT_3D('',#1270,#1271,#1272);
#1274=CYLINDRICAL_SURFACE('',#1273,5.7E-1);
#1276=ORIENTED_EDGE('',*,*,#1275,.T.);
#1278=ORIENTED_EDGE('',*,*,#1277,.F.);
#1280=ORIENTED_EDGE('',*,*,#1279,.F.);
#1282=ORIENTED_EDGE('',*,*,#1281,.T.);
#1283=EDGE_LOOP('',(#1276,#1278,#1280,#1282));
#1284=FACE_OUTER_BOUND('',#1283,.F.);
#1285=ADVANCED_FACE('',(#1284),#1274,.T.);
#1286=CARTESIAN_POINT('',(3.955E0,-6.9875E0,0.E0));
#1287=DIRECTION('',(0.E0,1.E0,0.E0));
#1288=DIRECTION('',(1.E0,0.E0,0.E0));
#1289=AXIS2_PLACEMENT_3D('',#1286,#1287,#1288);
#1290=CYLINDRICAL_SURFACE('',#1289,5.7E-1);
#1291=ORIENTED_EDGE('',*,*,#1250,.F.);
#1292=ORIENTED_EDGE('',*,*,#1265,.T.);
#1294=ORIENTED_EDGE('',*,*,#1293,.F.);
#1295=ORIENTED_EDGE('',*,*,#1261,.F.);
#1296=EDGE_LOOP('',(#1291,#1292,#1294,#1295));
#1297=FACE_OUTER_BOUND('',#1296,.F.);
#1298=ADVANCED_FACE('',(#1297),#1290,.T.);
#1299=CARTESIAN_POINT('',(3.955E0,-6.9875E0,0.E0));
#1300=DIRECTION('',(0.E0,1.E0,0.E0));
#1301=DIRECTION('',(1.E0,0.E0,0.E0));
#1302=AXIS2_PLACEMENT_3D('',#1299,#1300,#1301);
#1303=CYLINDRICAL_SURFACE('',#1302,5.7E-1);
#1305=ORIENTED_EDGE('',*,*,#1304,.T.);
#1306=ORIENTED_EDGE('',*,*,#1281,.F.);
#1308=ORIENTED_EDGE('',*,*,#1307,.T.);
#1309=ORIENTED_EDGE('',*,*,#1277,.T.);
#1310=EDGE_LOOP('',(#1305,#1306,#1308,#1309));
#1311=FACE_OUTER_BOUND('',#1310,.F.);
#1312=ADVANCED_FACE('',(#1311),#1303,.T.);
#1313=CARTESIAN_POINT('',(3.955E0,1.257E1,0.E0));
#1314=DIRECTION('',(0.E0,-1.E0,0.E0));
#1315=DIRECTION('',(-1.E0,0.E0,0.E0));
#1316=AXIS2_PLACEMENT_3D('',#1313,#1314,#1315);
#1317=CONICAL_SURFACE('',#1316,4.E-1,2.090798047101E1);
#1319=ORIENTED_EDGE('',*,*,#1318,.F.);
#1320=ORIENTED_EDGE('',*,*,#1293,.T.);
#1322=ORIENTED_EDGE('',*,*,#1321,.T.);
#1324=ORIENTED_EDGE('',*,*,#1323,.F.);
#1325=EDGE_LOOP('',(#1319,#1320,#1322,#1324));
#1326=FACE_OUTER_BOUND('',#1325,.F.);
#1327=ADVANCED_FACE('',(#1326),#1317,.T.);
#1328=CARTESIAN_POINT('',(3.955E0,1.257E1,0.E0));
#1329=DIRECTION('',(0.E0,-1.E0,0.E0));
#1330=DIRECTION('',(-1.E0,0.E0,0.E0));
#1331=AXIS2_PLACEMENT_3D('',#1328,#1329,#1330);
#1332=CONICAL_SURFACE('',#1331,4.E-1,2.090798047101E1);
#1333=ORIENTED_EDGE('',*,*,#1318,.T.);
#1335=ORIENTED_EDGE('',*,*,#1334,.T.);
#1336=ORIENTED_EDGE('',*,*,#1321,.F.);
#1337=ORIENTED_EDGE('',*,*,#1263,.F.);
#1338=EDGE_LOOP('',(#1333,#1335,#1336,#1337));
#1339=FACE_OUTER_BOUND('',#1338,.F.);
#1340=ADVANCED_FACE('',(#1339),#1332,.T.);
#1341=CARTESIAN_POINT('',(3.955E0,1.3015E1,0.E0));
#1342=DIRECTION('',(0.E0,1.E0,0.E0));
#1343=DIRECTION('',(1.E0,0.E0,0.E0));
#1344=AXIS2_PLACEMENT_3D('',#1341,#1342,#1343);
#1345=PLANE('',#1344);
#1346=ORIENTED_EDGE('',*,*,#1323,.T.);
#1347=ORIENTED_EDGE('',*,*,#1334,.F.);
#1348=EDGE_LOOP('',(#1346,#1347));
#1349=FACE_OUTER_BOUND('',#1348,.F.);
#1350=ADVANCED_FACE('',(#1349),#1345,.T.);
#1351=CARTESIAN_POINT('',(5.045E0,-1.205E0,3.47E0));
#1352=DIRECTION('',(0.E0,1.E0,0.E0));
#1353=DIRECTION('',(-1.E0,0.E0,0.E0));
#1354=AXIS2_PLACEMENT_3D('',#1351,#1352,#1353);
#1355=PLANE('',#1354);
#1356=ORIENTED_EDGE('',*,*,#1004,.T.);
#1358=ORIENTED_EDGE('',*,*,#1357,.F.);
#1359=ORIENTED_EDGE('',*,*,#1182,.F.);
#1361=ORIENTED_EDGE('',*,*,#1360,.T.);
#1362=EDGE_LOOP('',(#1356,#1358,#1359,#1361));
#1363=FACE_OUTER_BOUND('',#1362,.F.);
#1364=ORIENTED_EDGE('',*,*,#1275,.F.);
#1365=ORIENTED_EDGE('',*,*,#1304,.F.);
#1366=EDGE_LOOP('',(#1364,#1365));
#1367=FACE_BOUND('',#1366,.F.);
#1368=ADVANCED_FACE('',(#1363,#1367),#1355,.F.);
#1369=CARTESIAN_POINT('',(2.865E0,-1.205E0,3.47E0));
#1370=DIRECTION('',(-1.E0,0.E0,0.E0));
#1371=DIRECTION('',(0.E0,-1.E0,0.E0));
#1372=AXIS2_PLACEMENT_3D('',#1369,#1370,#1371);
#1373=PLANE('',#1372);
#1374=ORIENTED_EDGE('',*,*,#1002,.F.);
#1376=ORIENTED_EDGE('',*,*,#1375,.T.);
#1377=ORIENTED_EDGE('',*,*,#1184,.T.);
#1378=ORIENTED_EDGE('',*,*,#1357,.T.);
#1379=EDGE_LOOP('',(#1374,#1376,#1377,#1378));
#1380=FACE_OUTER_BOUND('',#1379,.F.);
#1381=ADVANCED_FACE('',(#1380),#1373,.F.);
#1382=CARTESIAN_POINT('',(-5.945E0,-1.585E0,-3.43E0));
#1383=DIRECTION('',(0.E0,-1.E0,0.E0));
#1384=DIRECTION('',(1.E0,0.E0,0.E0));
#1385=AXIS2_PLACEMENT_3D('',#1382,#1383,#1384);
#1386=PLANE('',#1385);
#1388=ORIENTED_EDGE('',*,*,#1387,.F.);
#1389=ORIENTED_EDGE('',*,*,#984,.F.);
#1391=ORIENTED_EDGE('',*,*,#1390,.T.);
#1392=ORIENTED_EDGE('',*,*,#1202,.T.);
#1393=EDGE_LOOP('',(#1388,#1389,#1391,#1392));
#1394=FACE_OUTER_BOUND('',#1393,.F.);
#1395=ADVANCED_FACE('',(#1394),#1386,.T.);
#1396=CARTESIAN_POINT('',(-5.945E0,-1.585E0,-3.43E0));
#1397=DIRECTION('',(0.E0,-1.E0,0.E0));
#1398=DIRECTION('',(1.E0,0.E0,0.E0));
#1399=AXIS2_PLACEMENT_3D('',#1396,#1397,#1398);
#1400=PLANE('',#1399);
#1402=ORIENTED_EDGE('',*,*,#1401,.F.);
#1403=ORIENTED_EDGE('',*,*,#992,.F.);
#1405=ORIENTED_EDGE('',*,*,#1404,.T.);
#1406=ORIENTED_EDGE('',*,*,#1194,.T.);
#1407=EDGE_LOOP('',(#1402,#1403,#1405,#1406));
#1408=FACE_OUTER_BOUND('',#1407,.F.);
#1410=ORIENTED_EDGE('',*,*,#1409,.F.);
#1412=ORIENTED_EDGE('',*,*,#1411,.F.);
#1414=ORIENTED_EDGE('',*,*,#1413,.F.);
#1416=ORIENTED_EDGE('',*,*,#1415,.F.);
#1417=EDGE_LOOP('',(#1410,#1412,#1414,#1416));
#1418=FACE_BOUND('',#1417,.F.);
#1419=ADVANCED_FACE('',(#1408,#1418),#1400,.T.);
#1420=CARTESIAN_POINT('',(-5.945E0,-1.585E0,-3.43E0));
#1421=DIRECTION('',(0.E0,-1.E0,0.E0));
#1422=DIRECTION('',(1.E0,0.E0,0.E0));
#1423=AXIS2_PLACEMENT_3D('',#1420,#1421,#1422);
#1424=PLANE('',#1423);
#1426=ORIENTED_EDGE('',*,*,#1425,.T.);
#1427=ORIENTED_EDGE('',*,*,#1178,.T.);
#1428=ORIENTED_EDGE('',*,*,#1027,.F.);
#1429=ORIENTED_EDGE('',*,*,#1008,.F.);
#1430=EDGE_LOOP('',(#1426,#1427,#1428,#1429));
#1431=FACE_OUTER_BOUND('',#1430,.F.);
#1432=ADVANCED_FACE('',(#1431),#1424,.T.);
#1433=CARTESIAN_POINT('',(-5.945E0,-1.585E0,-3.43E0));
#1434=DIRECTION('',(0.E0,-1.E0,0.E0));
#1435=DIRECTION('',(1.E0,0.E0,0.E0));
#1436=AXIS2_PLACEMENT_3D('',#1433,#1434,#1435);
#1437=PLANE('',#1436);
#1438=ORIENTED_EDGE('',*,*,#1375,.F.);
#1439=ORIENTED_EDGE('',*,*,#1000,.F.);
#1441=ORIENTED_EDGE('',*,*,#1440,.T.);
#1442=ORIENTED_EDGE('',*,*,#1186,.T.);
#1443=EDGE_LOOP('',(#1438,#1439,#1441,#1442));
#1444=FACE_OUTER_BOUND('',#1443,.F.);
#1446=ORIENTED_EDGE('',*,*,#1445,.F.);
#1448=ORIENTED_EDGE('',*,*,#1447,.F.);
#1450=ORIENTED_EDGE('',*,*,#1449,.F.);
#1452=ORIENTED_EDGE('',*,*,#1451,.F.);
#1453=EDGE_LOOP('',(#1446,#1448,#1450,#1452));
#1454=FACE_BOUND('',#1453,.F.);
#1455=ADVANCED_FACE('',(#1444,#1454),#1437,.T.);
#1456=CARTESIAN_POINT('',(-5.055E0,-1.205E0,3.47E0));
#1457=DIRECTION('',(-1.E0,0.E0,0.E0));
#1458=DIRECTION('',(0.E0,-1.E0,0.E0));
#1459=AXIS2_PLACEMENT_3D('',#1456,#1457,#1458);
#1460=PLANE('',#1459);
#1461=ORIENTED_EDGE('',*,*,#986,.F.);
#1462=ORIENTED_EDGE('',*,*,#1387,.T.);
#1463=ORIENTED_EDGE('',*,*,#1200,.T.);
#1465=ORIENTED_EDGE('',*,*,#1464,.T.);
#1466=EDGE_LOOP('',(#1461,#1462,#1463,#1465));
#1467=FACE_OUTER_BOUND('',#1466,.F.);
#1468=ADVANCED_FACE('',(#1467),#1460,.F.);
#1469=CARTESIAN_POINT('',(-2.875E0,-1.205E0,3.47E0));
#1470=DIRECTION('',(0.E0,1.E0,0.E0));
#1471=DIRECTION('',(-1.E0,0.E0,0.E0));
#1472=AXIS2_PLACEMENT_3D('',#1469,#1470,#1471);
#1473=PLANE('',#1472);
#1474=ORIENTED_EDGE('',*,*,#988,.T.);
#1475=ORIENTED_EDGE('',*,*,#1464,.F.);
#1476=ORIENTED_EDGE('',*,*,#1198,.F.);
#1478=ORIENTED_EDGE('',*,*,#1477,.T.);
#1479=EDGE_LOOP('',(#1474,#1475,#1476,#1478));
#1480=FACE_OUTER_BOUND('',#1479,.F.);
#1482=ORIENTED_EDGE('',*,*,#1481,.F.);
#1484=ORIENTED_EDGE('',*,*,#1483,.F.);
#1485=EDGE_LOOP('',(#1482,#1484));
#1486=FACE_BOUND('',#1485,.F.);
#1487=ADVANCED_FACE('',(#1480,#1486),#1473,.F.);
#1488=CARTESIAN_POINT('',(-2.875E0,-1.585E0,3.47E0));
#1489=DIRECTION('',(1.E0,0.E0,0.E0));
#1490=DIRECTION('',(0.E0,1.E0,0.E0));
#1491=AXIS2_PLACEMENT_3D('',#1488,#1489,#1490);
#1492=PLANE('',#1491);
#1493=ORIENTED_EDGE('',*,*,#990,.T.);
#1494=ORIENTED_EDGE('',*,*,#1477,.F.);
#1495=ORIENTED_EDGE('',*,*,#1196,.F.);
#1496=ORIENTED_EDGE('',*,*,#1404,.F.);
#1497=EDGE_LOOP('',(#1493,#1494,#1495,#1496));
#1498=FACE_OUTER_BOUND('',#1497,.F.);
#1499=ADVANCED_FACE('',(#1498),#1492,.F.);
#1500=CARTESIAN_POINT('',(-3.965E0,-6.9875E0,0.E0));
#1501=DIRECTION('',(0.E0,1.E0,0.E0));
#1502=DIRECTION('',(1.E0,0.E0,0.E0));
#1503=AXIS2_PLACEMENT_3D('',#1500,#1501,#1502);
#1504=CYLINDRICAL_SURFACE('',#1503,5.7E-1);
#1506=ORIENTED_EDGE('',*,*,#1505,.F.);
#1508=ORIENTED_EDGE('',*,*,#1507,.T.);
#1510=ORIENTED_EDGE('',*,*,#1509,.T.);
#1512=ORIENTED_EDGE('',*,*,#1511,.F.);
#1513=EDGE_LOOP('',(#1506,#1508,#1510,#1512));
#1514=FACE_OUTER_BOUND('',#1513,.F.);
#1515=ADVANCED_FACE('',(#1514),#1504,.T.);
#1516=CARTESIAN_POINT('',(-3.965E0,-6.9875E0,0.E0));
#1517=DIRECTION('',(0.E0,1.E0,0.E0));
#1518=DIRECTION('',(1.E0,0.E0,0.E0));
#1519=AXIS2_PLACEMENT_3D('',#1516,#1517,#1518);
#1520=CYLINDRICAL_SURFACE('',#1519,5.7E-1);
#1521=ORIENTED_EDGE('',*,*,#1481,.T.);
#1523=ORIENTED_EDGE('',*,*,#1522,.F.);
#1525=ORIENTED_EDGE('',*,*,#1524,.F.);
#1527=ORIENTED_EDGE('',*,*,#1526,.T.);
#1528=EDGE_LOOP('',(#1521,#1523,#1525,#1527));
#1529=FACE_OUTER_BOUND('',#1528,.F.);
#1530=ADVANCED_FACE('',(#1529),#1520,.T.);
#1531=CARTESIAN_POINT('',(-5.055E0,1.205E0,3.47E0));
#1532=DIRECTION('',(0.E0,-1.E0,0.E0));
#1533=DIRECTION('',(1.E0,0.E0,0.E0));
#1534=AXIS2_PLACEMENT_3D('',#1531,#1532,#1533);
#1535=PLANE('',#1534);
#1536=ORIENTED_EDGE('',*,*,#1139,.T.);
#1538=ORIENTED_EDGE('',*,*,#1537,.F.);
#1539=ORIENTED_EDGE('',*,*,#1209,.F.);
#1541=ORIENTED_EDGE('',*,*,#1540,.T.);
#1542=EDGE_LOOP('',(#1536,#1538,#1539,#1541));
#1543=FACE_OUTER_BOUND('',#1542,.F.);
#1544=ORIENTED_EDGE('',*,*,#1505,.T.);
#1546=ORIENTED_EDGE('',*,*,#1545,.T.);
#1547=EDGE_LOOP('',(#1544,#1546));
#1548=FACE_BOUND('',#1547,.F.);
#1549=ADVANCED_FACE('',(#1543,#1548),#1535,.F.);
#1550=CARTESIAN_POINT('',(-3.965E0,-6.9875E0,0.E0));
#1551=DIRECTION('',(0.E0,1.E0,0.E0));
#1552=DIRECTION('',(1.E0,0.E0,0.E0));
#1553=AXIS2_PLACEMENT_3D('',#1550,#1551,#1552);
#1554=CYLINDRICAL_SURFACE('',#1553,5.7E-1);
#1555=ORIENTED_EDGE('',*,*,#1545,.F.);
#1556=ORIENTED_EDGE('',*,*,#1511,.T.);
#1558=ORIENTED_EDGE('',*,*,#1557,.F.);
#1559=ORIENTED_EDGE('',*,*,#1507,.F.);
#1560=EDGE_LOOP('',(#1555,#1556,#1558,#1559));
#1561=FACE_OUTER_BOUND('',#1560,.F.);
#1562=ADVANCED_FACE('',(#1561),#1554,.T.);
#1563=CARTESIAN_POINT('',(-3.965E0,-6.9875E0,0.E0));
#1564=DIRECTION('',(0.E0,1.E0,0.E0));
#1565=DIRECTION('',(1.E0,0.E0,0.E0));
#1566=AXIS2_PLACEMENT_3D('',#1563,#1564,#1565);
#1567=CYLINDRICAL_SURFACE('',#1566,5.7E-1);
#1568=ORIENTED_EDGE('',*,*,#1483,.T.);
#1569=ORIENTED_EDGE('',*,*,#1526,.F.);
#1571=ORIENTED_EDGE('',*,*,#1570,.T.);
#1572=ORIENTED_EDGE('',*,*,#1522,.T.);
#1573=EDGE_LOOP('',(#1568,#1569,#1571,#1572));
#1574=FACE_OUTER_BOUND('',#1573,.F.);
#1575=ADVANCED_FACE('',(#1574),#1567,.T.);
#1576=CARTESIAN_POINT('',(-3.965E0,1.257E1,0.E0));
#1577=DIRECTION('',(0.E0,-1.E0,0.E0));
#1578=DIRECTION('',(-1.E0,0.E0,0.E0));
#1579=AXIS2_PLACEMENT_3D('',#1576,#1577,#1578);
#1580=CONICAL_SURFACE('',#1579,4.E-1,2.090798047101E1);
#1582=ORIENTED_EDGE('',*,*,#1581,.F.);
#1583=ORIENTED_EDGE('',*,*,#1557,.T.);
#1585=ORIENTED_EDGE('',*,*,#1584,.T.);
#1587=ORIENTED_EDGE('',*,*,#1586,.F.);
#1588=EDGE_LOOP('',(#1582,#1583,#1585,#1587));
#1589=FACE_OUTER_BOUND('',#1588,.F.);
#1590=ADVANCED_FACE('',(#1589),#1580,.T.);
#1591=CARTESIAN_POINT('',(-3.965E0,1.257E1,0.E0));
#1592=DIRECTION('',(0.E0,-1.E0,0.E0));
#1593=DIRECTION('',(-1.E0,0.E0,0.E0));
#1594=AXIS2_PLACEMENT_3D('',#1591,#1592,#1593);
#1595=CONICAL_SURFACE('',#1594,4.E-1,2.090798047101E1);
#1596=ORIENTED_EDGE('',*,*,#1581,.T.);
#1598=ORIENTED_EDGE('',*,*,#1597,.T.);
#1599=ORIENTED_EDGE('',*,*,#1584,.F.);
#1600=ORIENTED_EDGE('',*,*,#1509,.F.);
#1601=EDGE_LOOP('',(#1596,#1598,#1599,#1600));
#1602=FACE_OUTER_BOUND('',#1601,.F.);
#1603=ADVANCED_FACE('',(#1602),#1595,.T.);
#1604=CARTESIAN_POINT('',(-3.965E0,1.3015E1,0.E0));
#1605=DIRECTION('',(0.E0,1.E0,0.E0));
#1606=DIRECTION('',(1.E0,0.E0,0.E0));
#1607=AXIS2_PLACEMENT_3D('',#1604,#1605,#1606);
#1608=PLANE('',#1607);
#1609=ORIENTED_EDGE('',*,*,#1586,.T.);
#1610=ORIENTED_EDGE('',*,*,#1597,.F.);
#1611=EDGE_LOOP('',(#1609,#1610));
#1612=FACE_OUTER_BOUND('',#1611,.F.);
#1613=ADVANCED_FACE('',(#1612),#1608,.T.);
#1614=CARTESIAN_POINT('',(-3.965E0,-5.59E0,0.E0));
#1615=DIRECTION('',(0.E0,1.E0,0.E0));
#1616=DIRECTION('',(1.E0,0.E0,0.E0));
#1617=AXIS2_PLACEMENT_3D('',#1614,#1615,#1616);
#1618=CONICAL_SURFACE('',#1617,4.E-1,2.090798047101E1);
#1620=ORIENTED_EDGE('',*,*,#1619,.F.);
#1622=ORIENTED_EDGE('',*,*,#1621,.T.);
#1624=ORIENTED_EDGE('',*,*,#1623,.T.);
#1625=ORIENTED_EDGE('',*,*,#1570,.F.);
#1626=EDGE_LOOP('',(#1620,#1622,#1624,#1625));
#1627=FACE_OUTER_BOUND('',#1626,.F.);
#1628=ADVANCED_FACE('',(#1627),#1618,.T.);
#1629=CARTESIAN_POINT('',(-3.965E0,-5.59E0,0.E0));
#1630=DIRECTION('',(0.E0,1.E0,0.E0));
#1631=DIRECTION('',(1.E0,0.E0,0.E0));
#1632=AXIS2_PLACEMENT_3D('',#1629,#1630,#1631);
#1633=CONICAL_SURFACE('',#1632,4.E-1,2.090798047101E1);
#1634=ORIENTED_EDGE('',*,*,#1619,.T.);
#1635=ORIENTED_EDGE('',*,*,#1524,.T.);
#1636=ORIENTED_EDGE('',*,*,#1623,.F.);
#1638=ORIENTED_EDGE('',*,*,#1637,.F.);
#1639=EDGE_LOOP('',(#1634,#1635,#1636,#1638));
#1640=FACE_OUTER_BOUND('',#1639,.F.);
#1641=ADVANCED_FACE('',(#1640),#1633,.T.);
#1642=CARTESIAN_POINT('',(-3.965E0,-6.035E0,0.E0));
#1643=DIRECTION('',(0.E0,1.E0,0.E0));
#1644=DIRECTION('',(1.E0,0.E0,0.E0));
#1645=AXIS2_PLACEMENT_3D('',#1642,#1643,#1644);
#1646=PLANE('',#1645);
#1647=ORIENTED_EDGE('',*,*,#1621,.F.);
#1648=ORIENTED_EDGE('',*,*,#1637,.T.);
#1649=EDGE_LOOP('',(#1647,#1648));
#1650=FACE_OUTER_BOUND('',#1649,.F.);
#1651=ADVANCED_FACE('',(#1650),#1646,.F.);
#1652=CARTESIAN_POINT('',(-2.875E0,1.205E0,3.47E0));
#1653=DIRECTION('',(1.E0,0.E0,0.E0));
#1654=DIRECTION('',(0.E0,1.E0,0.E0));
#1655=AXIS2_PLACEMENT_3D('',#1652,#1653,#1654);
#1656=PLANE('',#1655);
#1657=ORIENTED_EDGE('',*,*,#1096,.T.);
#1658=ORIENTED_EDGE('',*,*,#1211,.T.);
#1659=ORIENTED_EDGE('',*,*,#1537,.T.);
#1660=ORIENTED_EDGE('',*,*,#1137,.T.);
#1661=EDGE_LOOP('',(#1657,#1658,#1659,#1660));
#1662=FACE_OUTER_BOUND('',#1661,.F.);
#1663=ADVANCED_FACE('',(#1662),#1656,.F.);
#1664=CARTESIAN_POINT('',(-5.055E0,1.585E0,3.47E0));
#1665=DIRECTION('',(-1.E0,0.E0,0.E0));
#1666=DIRECTION('',(0.E0,-1.E0,0.E0));
#1667=AXIS2_PLACEMENT_3D('',#1664,#1665,#1666);
#1668=PLANE('',#1667);
#1669=ORIENTED_EDGE('',*,*,#1058,.F.);
#1670=ORIENTED_EDGE('',*,*,#1141,.T.);
#1671=ORIENTED_EDGE('',*,*,#1540,.F.);
#1672=ORIENTED_EDGE('',*,*,#1207,.F.);
#1673=EDGE_LOOP('',(#1669,#1670,#1671,#1672));
#1674=FACE_OUTER_BOUND('',#1673,.F.);
#1675=ADVANCED_FACE('',(#1674),#1668,.F.);
#1676=CARTESIAN_POINT('',(-5.945E0,1.585E0,-3.43E0));
#1677=DIRECTION('',(-1.E0,0.E0,0.E0));
#1678=DIRECTION('',(0.E0,-1.E0,0.E0));
#1679=AXIS2_PLACEMENT_3D('',#1676,#1677,#1678);
#1680=PLANE('',#1679);
#1681=ORIENTED_EDGE('',*,*,#982,.T.);
#1683=ORIENTED_EDGE('',*,*,#1682,.F.);
#1685=ORIENTED_EDGE('',*,*,#1684,.F.);
#1686=ORIENTED_EDGE('',*,*,#1144,.T.);
#1687=ORIENTED_EDGE('',*,*,#1054,.T.);
#1688=ORIENTED_EDGE('',*,*,#1204,.T.);
#1689=ORIENTED_EDGE('',*,*,#1390,.F.);
#1690=EDGE_LOOP('',(#1681,#1683,#1685,#1686,#1687,#1688,#1689));
#1691=FACE_OUTER_BOUND('',#1690,.F.);
#1692=ADVANCED_FACE('',(#1691),#1680,.T.);
#1693=CARTESIAN_POINT('',(5.945E0,7.535E0,-3.43E0));
#1694=DIRECTION('',(0.E0,1.E0,0.E0));
#1695=DIRECTION('',(0.E0,0.E0,1.E0));
#1696=AXIS2_PLACEMENT_3D('',#1693,#1694,#1695);
#1697=PLANE('',#1696);
#1698=ORIENTED_EDGE('',*,*,#1024,.T.);
#1700=ORIENTED_EDGE('',*,*,#1699,.F.);
#1701=ORIENTED_EDGE('',*,*,#1682,.T.);
#1702=ORIENTED_EDGE('',*,*,#980,.T.);
#1703=EDGE_LOOP('',(#1698,#1700,#1701,#1702));
#1704=FACE_OUTER_BOUND('',#1703,.F.);
#1705=ADVANCED_FACE('',(#1704),#1697,.T.);
#1706=CARTESIAN_POINT('',(5.945E0,7.535E0,-2.83E0));
#1707=DIRECTION('',(0.E0,5.E-1,8.660254037844E-1));
#1708=DIRECTION('',(0.E0,-8.660254037844E-1,5.E-1));
#1709=AXIS2_PLACEMENT_3D('',#1706,#1707,#1708);
#1710=PLANE('',#1709);
#1711=ORIENTED_EDGE('',*,*,#1022,.T.);
#1712=ORIENTED_EDGE('',*,*,#1146,.F.);
#1713=ORIENTED_EDGE('',*,*,#1684,.T.);
#1714=ORIENTED_EDGE('',*,*,#1699,.T.);
#1715=EDGE_LOOP('',(#1711,#1712,#1713,#1714));
#1716=FACE_OUTER_BOUND('',#1715,.F.);
#1717=ADVANCED_FACE('',(#1716),#1710,.T.);
#1718=CARTESIAN_POINT('',(-1.095E0,-1.205E0,3.47E0));
#1719=DIRECTION('',(-1.E0,0.E0,0.E0));
#1720=DIRECTION('',(0.E0,-1.E0,0.E0));
#1721=AXIS2_PLACEMENT_3D('',#1718,#1719,#1720);
#1722=PLANE('',#1721);
#1723=ORIENTED_EDGE('',*,*,#994,.F.);
#1724=ORIENTED_EDGE('',*,*,#1401,.T.);
#1725=ORIENTED_EDGE('',*,*,#1192,.T.);
#1727=ORIENTED_EDGE('',*,*,#1726,.T.);
#1728=EDGE_LOOP('',(#1723,#1724,#1725,#1727));
#1729=FACE_OUTER_BOUND('',#1728,.F.);
#1730=ADVANCED_FACE('',(#1729),#1722,.F.);
#1731=CARTESIAN_POINT('',(1.085E0,-1.205E0,3.47E0));
#1732=DIRECTION('',(0.E0,1.E0,0.E0));
#1733=DIRECTION('',(-1.E0,0.E0,0.E0));
#1734=AXIS2_PLACEMENT_3D('',#1731,#1732,#1733);
#1735=PLANE('',#1734);
#1736=ORIENTED_EDGE('',*,*,#996,.T.);
#1737=ORIENTED_EDGE('',*,*,#1726,.F.);
#1738=ORIENTED_EDGE('',*,*,#1190,.F.);
#1740=ORIENTED_EDGE('',*,*,#1739,.T.);
#1741=EDGE_LOOP('',(#1736,#1737,#1738,#1740));
#1742=FACE_OUTER_BOUND('',#1741,.F.);
#1744=ORIENTED_EDGE('',*,*,#1743,.F.);
#1746=ORIENTED_EDGE('',*,*,#1745,.F.);
#1747=EDGE_LOOP('',(#1744,#1746));
#1748=FACE_BOUND('',#1747,.F.);
#1749=ADVANCED_FACE('',(#1742,#1748),#1735,.F.);
#1750=CARTESIAN_POINT('',(1.085E0,-1.585E0,3.47E0));
#1751=DIRECTION('',(1.E0,0.E0,0.E0));
#1752=DIRECTION('',(0.E0,1.E0,0.E0));
#1753=AXIS2_PLACEMENT_3D('',#1750,#1751,#1752);
#1754=PLANE('',#1753);
#1755=ORIENTED_EDGE('',*,*,#998,.T.);
#1756=ORIENTED_EDGE('',*,*,#1739,.F.);
#1757=ORIENTED_EDGE('',*,*,#1188,.F.);
#1758=ORIENTED_EDGE('',*,*,#1440,.F.);
#1759=EDGE_LOOP('',(#1755,#1756,#1757,#1758));
#1760=FACE_OUTER_BOUND('',#1759,.F.);
#1761=ADVANCED_FACE('',(#1760),#1754,.F.);
#1762=CARTESIAN_POINT('',(-5.000000000001E-3,-6.9875E0,0.E0));
#1763=DIRECTION('',(0.E0,1.E0,0.E0));
#1764=DIRECTION('',(1.E0,0.E0,0.E0));
#1765=AXIS2_PLACEMENT_3D('',#1762,#1763,#1764);
#1766=CYLINDRICAL_SURFACE('',#1765,5.7E-1);
#1768=ORIENTED_EDGE('',*,*,#1767,.F.);
#1770=ORIENTED_EDGE('',*,*,#1769,.T.);
#1772=ORIENTED_EDGE('',*,*,#1771,.T.);
#1774=ORIENTED_EDGE('',*,*,#1773,.F.);
#1775=EDGE_LOOP('',(#1768,#1770,#1772,#1774));
#1776=FACE_OUTER_BOUND('',#1775,.F.);
#1777=ADVANCED_FACE('',(#1776),#1766,.T.);
#1778=CARTESIAN_POINT('',(-5.000000000001E-3,-6.9875E0,0.E0));
#1779=DIRECTION('',(0.E0,1.E0,0.E0));
#1780=DIRECTION('',(1.E0,0.E0,0.E0));
#1781=AXIS2_PLACEMENT_3D('',#1778,#1779,#1780);
#1782=CYLINDRICAL_SURFACE('',#1781,5.7E-1);
#1783=ORIENTED_EDGE('',*,*,#1743,.T.);
#1785=ORIENTED_EDGE('',*,*,#1784,.F.);
#1787=ORIENTED_EDGE('',*,*,#1786,.F.);
#1789=ORIENTED_EDGE('',*,*,#1788,.T.);
#1790=EDGE_LOOP('',(#1783,#1785,#1787,#1789));
#1791=FACE_OUTER_BOUND('',#1790,.F.);
#1792=ADVANCED_FACE('',(#1791),#1782,.T.);
#1793=CARTESIAN_POINT('',(-1.095E0,1.205E0,3.47E0));
#1794=DIRECTION('',(0.E0,-1.E0,0.E0));
#1795=DIRECTION('',(1.E0,0.E0,0.E0));
#1796=AXIS2_PLACEMENT_3D('',#1793,#1794,#1795);
#1797=PLANE('',#1796);
#1798=ORIENTED_EDGE('',*,*,#1132,.T.);
#1800=ORIENTED_EDGE('',*,*,#1799,.F.);
#1801=ORIENTED_EDGE('',*,*,#1216,.F.);
#1803=ORIENTED_EDGE('',*,*,#1802,.T.);
#1804=EDGE_LOOP('',(#1798,#1800,#1801,#1803));
#1805=FACE_OUTER_BOUND('',#1804,.F.);
#1806=ORIENTED_EDGE('',*,*,#1767,.T.);
#1808=ORIENTED_EDGE('',*,*,#1807,.T.);
#1809=EDGE_LOOP('',(#1806,#1808));
#1810=FACE_BOUND('',#1809,.F.);
#1811=ADVANCED_FACE('',(#1805,#1810),#1797,.F.);
#1812=CARTESIAN_POINT('',(-5.000000000001E-3,-6.9875E0,0.E0));
#1813=DIRECTION('',(0.E0,1.E0,0.E0));
#1814=DIRECTION('',(1.E0,0.E0,0.E0));
#1815=AXIS2_PLACEMENT_3D('',#1812,#1813,#1814);
#1816=CYLINDRICAL_SURFACE('',#1815,5.7E-1);
#1817=ORIENTED_EDGE('',*,*,#1807,.F.);
#1818=ORIENTED_EDGE('',*,*,#1773,.T.);
#1820=ORIENTED_EDGE('',*,*,#1819,.F.);
#1821=ORIENTED_EDGE('',*,*,#1769,.F.);
#1822=EDGE_LOOP('',(#1817,#1818,#1820,#1821));
#1823=FACE_OUTER_BOUND('',#1822,.F.);
#1824=ADVANCED_FACE('',(#1823),#1816,.T.);
#1825=CARTESIAN_POINT('',(-5.000000000001E-3,-6.9875E0,0.E0));
#1826=DIRECTION('',(0.E0,1.E0,0.E0));
#1827=DIRECTION('',(1.E0,0.E0,0.E0));
#1828=AXIS2_PLACEMENT_3D('',#1825,#1826,#1827);
#1829=CYLINDRICAL_SURFACE('',#1828,5.7E-1);
#1830=ORIENTED_EDGE('',*,*,#1745,.T.);
#1831=ORIENTED_EDGE('',*,*,#1788,.F.);
#1833=ORIENTED_EDGE('',*,*,#1832,.T.);
#1834=ORIENTED_EDGE('',*,*,#1784,.T.);
#1835=EDGE_LOOP('',(#1830,#1831,#1833,#1834));
#1836=FACE_OUTER_BOUND('',#1835,.F.);
#1837=ADVANCED_FACE('',(#1836),#1829,.T.);
#1838=CARTESIAN_POINT('',(-5.000000000001E-3,1.257E1,0.E0));
#1839=DIRECTION('',(0.E0,-1.E0,0.E0));
#1840=DIRECTION('',(-1.E0,0.E0,0.E0));
#1841=AXIS2_PLACEMENT_3D('',#1838,#1839,#1840);
#1842=CONICAL_SURFACE('',#1841,4.E-1,2.090798047101E1);
#1844=ORIENTED_EDGE('',*,*,#1843,.F.);
#1845=ORIENTED_EDGE('',*,*,#1819,.T.);
#1847=ORIENTED_EDGE('',*,*,#1846,.T.);
#1849=ORIENTED_EDGE('',*,*,#1848,.F.);
#1850=EDGE_LOOP('',(#1844,#1845,#1847,#1849));
#1851=FACE_OUTER_BOUND('',#1850,.F.);
#1852=ADVANCED_FACE('',(#1851),#1842,.T.);
#1853=CARTESIAN_POINT('',(-5.000000000001E-3,1.257E1,0.E0));
#1854=DIRECTION('',(0.E0,-1.E0,0.E0));
#1855=DIRECTION('',(-1.E0,0.E0,0.E0));
#1856=AXIS2_PLACEMENT_3D('',#1853,#1854,#1855);
#1857=CONICAL_SURFACE('',#1856,4.E-1,2.090798047101E1);
#1858=ORIENTED_EDGE('',*,*,#1843,.T.);
#1860=ORIENTED_EDGE('',*,*,#1859,.T.);
#1861=ORIENTED_EDGE('',*,*,#1846,.F.);
#1862=ORIENTED_EDGE('',*,*,#1771,.F.);
#1863=EDGE_LOOP('',(#1858,#1860,#1861,#1862));
#1864=FACE_OUTER_BOUND('',#1863,.F.);
#1865=ADVANCED_FACE('',(#1864),#1857,.T.);
#1866=CARTESIAN_POINT('',(-5.000000000001E-3,1.3015E1,0.E0));
#1867=DIRECTION('',(0.E0,1.E0,0.E0));
#1868=DIRECTION('',(1.E0,0.E0,0.E0));
#1869=AXIS2_PLACEMENT_3D('',#1866,#1867,#1868);
#1870=PLANE('',#1869);
#1871=ORIENTED_EDGE('',*,*,#1848,.T.);
#1872=ORIENTED_EDGE('',*,*,#1859,.F.);
#1873=EDGE_LOOP('',(#1871,#1872));
#1874=FACE_OUTER_BOUND('',#1873,.F.);
#1875=ADVANCED_FACE('',(#1874),#1870,.T.);
#1876=CARTESIAN_POINT('',(-5.000000000001E-3,-5.59E0,0.E0));
#1877=DIRECTION('',(0.E0,1.E0,0.E0));
#1878=DIRECTION('',(1.E0,0.E0,0.E0));
#1879=AXIS2_PLACEMENT_3D('',#1876,#1877,#1878);
#1880=CONICAL_SURFACE('',#1879,4.E-1,2.090798047101E1);
#1882=ORIENTED_EDGE('',*,*,#1881,.F.);
#1884=ORIENTED_EDGE('',*,*,#1883,.T.);
#1886=ORIENTED_EDGE('',*,*,#1885,.T.);
#1887=ORIENTED_EDGE('',*,*,#1832,.F.);
#1888=EDGE_LOOP('',(#1882,#1884,#1886,#1887));
#1889=FACE_OUTER_BOUND('',#1888,.F.);
#1890=ADVANCED_FACE('',(#1889),#1880,.T.);
#1891=CARTESIAN_POINT('',(-5.000000000001E-3,-5.59E0,0.E0));
#1892=DIRECTION('',(0.E0,1.E0,0.E0));
#1893=DIRECTION('',(1.E0,0.E0,0.E0));
#1894=AXIS2_PLACEMENT_3D('',#1891,#1892,#1893);
#1895=CONICAL_SURFACE('',#1894,4.E-1,2.090798047101E1);
#1896=ORIENTED_EDGE('',*,*,#1881,.T.);
#1897=ORIENTED_EDGE('',*,*,#1786,.T.);
#1898=ORIENTED_EDGE('',*,*,#1885,.F.);
#1900=ORIENTED_EDGE('',*,*,#1899,.F.);
#1901=EDGE_LOOP('',(#1896,#1897,#1898,#1900));
#1902=FACE_OUTER_BOUND('',#1901,.F.);
#1903=ADVANCED_FACE('',(#1902),#1895,.T.);
#1904=CARTESIAN_POINT('',(-5.000000000001E-3,-6.035E0,0.E0));
#1905=DIRECTION('',(0.E0,1.E0,0.E0));
#1906=DIRECTION('',(1.E0,0.E0,0.E0));
#1907=AXIS2_PLACEMENT_3D('',#1904,#1905,#1906);
#1908=PLANE('',#1907);
#1909=ORIENTED_EDGE('',*,*,#1883,.F.);
#1910=ORIENTED_EDGE('',*,*,#1899,.T.);
#1911=EDGE_LOOP('',(#1909,#1910));
#1912=FACE_OUTER_BOUND('',#1911,.F.);
#1913=ADVANCED_FACE('',(#1912),#1908,.F.);
#1914=CARTESIAN_POINT('',(1.085E0,1.205E0,3.47E0));
#1915=DIRECTION('',(1.E0,0.E0,0.E0));
#1916=DIRECTION('',(0.E0,1.E0,0.E0));
#1917=AXIS2_PLACEMENT_3D('',#1914,#1915,#1916);
#1918=PLANE('',#1917);
#1919=ORIENTED_EDGE('',*,*,#1130,.T.);
#1920=ORIENTED_EDGE('',*,*,#1076,.T.);
#1921=ORIENTED_EDGE('',*,*,#1218,.T.);
#1922=ORIENTED_EDGE('',*,*,#1799,.T.);
#1923=EDGE_LOOP('',(#1919,#1920,#1921,#1922));
#1924=FACE_OUTER_BOUND('',#1923,.F.);
#1925=ADVANCED_FACE('',(#1924),#1918,.F.);
#1926=CARTESIAN_POINT('',(-1.095E0,1.585E0,3.47E0));
#1927=DIRECTION('',(-1.E0,0.E0,0.E0));
#1928=DIRECTION('',(0.E0,-1.E0,0.E0));
#1929=AXIS2_PLACEMENT_3D('',#1926,#1927,#1928);
#1930=PLANE('',#1929);
#1931=ORIENTED_EDGE('',*,*,#1134,.T.);
#1932=ORIENTED_EDGE('',*,*,#1802,.F.);
#1933=ORIENTED_EDGE('',*,*,#1214,.F.);
#1934=ORIENTED_EDGE('',*,*,#1100,.F.);
#1935=EDGE_LOOP('',(#1931,#1932,#1933,#1934));
#1936=FACE_OUTER_BOUND('',#1935,.F.);
#1937=ADVANCED_FACE('',(#1936),#1930,.F.);
#1938=CARTESIAN_POINT('',(5.045E0,-1.585E0,3.47E0));
#1939=DIRECTION('',(1.E0,0.E0,0.E0));
#1940=DIRECTION('',(0.E0,1.E0,0.E0));
#1941=AXIS2_PLACEMENT_3D('',#1938,#1939,#1940);
#1942=PLANE('',#1941);
#1943=ORIENTED_EDGE('',*,*,#1006,.T.);
#1944=ORIENTED_EDGE('',*,*,#1360,.F.);
#1945=ORIENTED_EDGE('',*,*,#1180,.F.);
#1946=ORIENTED_EDGE('',*,*,#1425,.F.);
#1947=EDGE_LOOP('',(#1943,#1944,#1945,#1946));
#1948=FACE_OUTER_BOUND('',#1947,.F.);
#1949=ADVANCED_FACE('',(#1948),#1942,.F.);
#1950=CARTESIAN_POINT('',(-2.495E0,1.585E0,-1.5E0));
#1951=DIRECTION('',(-1.E0,0.E0,0.E0));
#1952=DIRECTION('',(0.E0,0.E0,1.E0));
#1953=AXIS2_PLACEMENT_3D('',#1950,#1951,#1952);
#1954=PLANE('',#1953);
#1955=ORIENTED_EDGE('',*,*,#1409,.T.);
#1957=ORIENTED_EDGE('',*,*,#1956,.F.);
#1958=ORIENTED_EDGE('',*,*,#1106,.F.);
#1960=ORIENTED_EDGE('',*,*,#1959,.T.);
#1961=EDGE_LOOP('',(#1955,#1957,#1958,#1960));
#1962=FACE_OUTER_BOUND('',#1961,.F.);
#1963=ADVANCED_FACE('',(#1962),#1954,.F.);
#1964=CARTESIAN_POINT('',(-2.495E0,1.585E0,1.5E0));
#1965=DIRECTION('',(0.E0,0.E0,1.E0));
#1966=DIRECTION('',(1.E0,0.E0,0.E0));
#1967=AXIS2_PLACEMENT_3D('',#1964,#1965,#1966);
#1968=PLANE('',#1967);
#1969=ORIENTED_EDGE('',*,*,#1415,.T.);
#1971=ORIENTED_EDGE('',*,*,#1970,.F.);
#1972=ORIENTED_EDGE('',*,*,#1108,.F.);
#1973=ORIENTED_EDGE('',*,*,#1956,.T.);
#1974=EDGE_LOOP('',(#1969,#1971,#1972,#1973));
#1975=FACE_OUTER_BOUND('',#1974,.F.);
#1976=ADVANCED_FACE('',(#1975),#1968,.F.);
#1977=CARTESIAN_POINT('',(-1.475E0,1.585E0,1.5E0));
#1978=DIRECTION('',(1.E0,0.E0,0.E0));
#1979=DIRECTION('',(0.E0,0.E0,-1.E0));
#1980=AXIS2_PLACEMENT_3D('',#1977,#1978,#1979);
#1981=PLANE('',#1980);
#1982=ORIENTED_EDGE('',*,*,#1413,.T.);
#1984=ORIENTED_EDGE('',*,*,#1983,.F.);
#1985=ORIENTED_EDGE('',*,*,#1110,.F.);
#1986=ORIENTED_EDGE('',*,*,#1970,.T.);
#1987=EDGE_LOOP('',(#1982,#1984,#1985,#1986));
#1988=FACE_OUTER_BOUND('',#1987,.F.);
#1989=ADVANCED_FACE('',(#1988),#1981,.F.);
#1990=CARTESIAN_POINT('',(-1.475E0,1.585E0,-1.5E0));
#1991=DIRECTION('',(0.E0,0.E0,-1.E0));
#1992=DIRECTION('',(-1.E0,0.E0,0.E0));
#1993=AXIS2_PLACEMENT_3D('',#1990,#1991,#1992);
#1994=PLANE('',#1993);
#1995=ORIENTED_EDGE('',*,*,#1411,.T.);
#1996=ORIENTED_EDGE('',*,*,#1959,.F.);
#1997=ORIENTED_EDGE('',*,*,#1112,.F.);
#1998=ORIENTED_EDGE('',*,*,#1983,.T.);
#1999=EDGE_LOOP('',(#1995,#1996,#1997,#1998));
#2000=FACE_OUTER_BOUND('',#1999,.F.);
#2001=ADVANCED_FACE('',(#2000),#1994,.F.);
#2002=CARTESIAN_POINT('',(1.465E0,1.585E0,-1.5E0));
#2003=DIRECTION('',(-1.E0,0.E0,0.E0));
#2004=DIRECTION('',(0.E0,0.E0,1.E0));
#2005=AXIS2_PLACEMENT_3D('',#2002,#2003,#2004);
#2006=PLANE('',#2005);
#2007=ORIENTED_EDGE('',*,*,#1445,.T.);
#2009=ORIENTED_EDGE('',*,*,#2008,.F.);
#2010=ORIENTED_EDGE('',*,*,#1080,.F.);
#2012=ORIENTED_EDGE('',*,*,#2011,.T.);
#2013=EDGE_LOOP('',(#2007,#2009,#2010,#2012));
#2014=FACE_OUTER_BOUND('',#2013,.F.);
#2015=ADVANCED_FACE('',(#2014),#2006,.F.);
#2016=CARTESIAN_POINT('',(1.465E0,1.585E0,1.5E0));
#2017=DIRECTION('',(0.E0,0.E0,1.E0));
#2018=DIRECTION('',(1.E0,0.E0,0.E0));
#2019=AXIS2_PLACEMENT_3D('',#2016,#2017,#2018);
#2020=PLANE('',#2019);
#2021=ORIENTED_EDGE('',*,*,#1451,.T.);
#2023=ORIENTED_EDGE('',*,*,#2022,.F.);
#2024=ORIENTED_EDGE('',*,*,#1082,.F.);
#2025=ORIENTED_EDGE('',*,*,#2008,.T.);
#2026=EDGE_LOOP('',(#2021,#2023,#2024,#2025));
#2027=FACE_OUTER_BOUND('',#2026,.F.);
#2028=ADVANCED_FACE('',(#2027),#2020,.F.);
#2029=CARTESIAN_POINT('',(2.485E0,1.585E0,1.5E0));
#2030=DIRECTION('',(1.E0,0.E0,0.E0));
#2031=DIRECTION('',(0.E0,0.E0,-1.E0));
#2032=AXIS2_PLACEMENT_3D('',#2029,#2030,#2031);
#2033=PLANE('',#2032);
#2034=ORIENTED_EDGE('',*,*,#1449,.T.);
#2036=ORIENTED_EDGE('',*,*,#2035,.F.);
#2037=ORIENTED_EDGE('',*,*,#1084,.F.);
#2038=ORIENTED_EDGE('',*,*,#2022,.T.);
#2039=EDGE_LOOP('',(#2034,#2036,#2037,#2038));
#2040=FACE_OUTER_BOUND('',#2039,.F.);
#2041=ADVANCED_FACE('',(#2040),#2033,.F.);
#2042=CARTESIAN_POINT('',(2.485E0,1.585E0,-1.5E0));
#2043=DIRECTION('',(0.E0,0.E0,-1.E0));
#2044=DIRECTION('',(-1.E0,0.E0,0.E0));
#2045=AXIS2_PLACEMENT_3D('',#2042,#2043,#2044);
#2046=PLANE('',#2045);
#2047=ORIENTED_EDGE('',*,*,#1447,.T.);
#2048=ORIENTED_EDGE('',*,*,#2011,.F.);
#2049=ORIENTED_EDGE('',*,*,#1086,.F.);
#2050=ORIENTED_EDGE('',*,*,#2035,.T.);
#2051=EDGE_LOOP('',(#2047,#2048,#2049,#2050));
#2052=FACE_OUTER_BOUND('',#2051,.F.);
#2053=ADVANCED_FACE('',(#2052),#2046,.F.);
#2054=CARTESIAN_POINT('',(3.955E0,-5.59E0,0.E0));
#2055=DIRECTION('',(0.E0,1.E0,0.E0));
#2056=DIRECTION('',(1.E0,0.E0,0.E0));
#2057=AXIS2_PLACEMENT_3D('',#2054,#2055,#2056);
#2058=CONICAL_SURFACE('',#2057,4.E-1,2.090798047101E1);
#2060=ORIENTED_EDGE('',*,*,#2059,.F.);
#2062=ORIENTED_EDGE('',*,*,#2061,.T.);
#2064=ORIENTED_EDGE('',*,*,#2063,.T.);
#2065=ORIENTED_EDGE('',*,*,#1307,.F.);
#2066=EDGE_LOOP('',(#2060,#2062,#2064,#2065));
#2067=FACE_OUTER_BOUND('',#2066,.F.);
#2068=ADVANCED_FACE('',(#2067),#2058,.T.);
#2069=CARTESIAN_POINT('',(3.955E0,-5.59E0,0.E0));
#2070=DIRECTION('',(0.E0,1.E0,0.E0));
#2071=DIRECTION('',(1.E0,0.E0,0.E0));
#2072=AXIS2_PLACEMENT_3D('',#2069,#2070,#2071);
#2073=CONICAL_SURFACE('',#2072,4.E-1,2.090798047101E1);
#2074=ORIENTED_EDGE('',*,*,#2059,.T.);
#2075=ORIENTED_EDGE('',*,*,#1279,.T.);
#2076=ORIENTED_EDGE('',*,*,#2063,.F.);
#2078=ORIENTED_EDGE('',*,*,#2077,.F.);
#2079=EDGE_LOOP('',(#2074,#2075,#2076,#2078));
#2080=FACE_OUTER_BOUND('',#2079,.F.);
#2081=ADVANCED_FACE('',(#2080),#2073,.T.);
#2082=CARTESIAN_POINT('',(3.955E0,-6.035E0,0.E0));
#2083=DIRECTION('',(0.E0,1.E0,0.E0));
#2084=DIRECTION('',(1.E0,0.E0,0.E0));
#2085=AXIS2_PLACEMENT_3D('',#2082,#2083,#2084);
#2086=PLANE('',#2085);
#2087=ORIENTED_EDGE('',*,*,#2061,.F.);
#2088=ORIENTED_EDGE('',*,*,#2077,.T.);
#2089=EDGE_LOOP('',(#2087,#2088));
#2090=FACE_OUTER_BOUND('',#2089,.F.);
#2091=ADVANCED_FACE('',(#2090),#2086,.F.);
#2092=CLOSED_SHELL('',(#1012,#1033,#1048,#1064,#1090,#1116,#1151,#1165,#1223,
#1236,#1254,#1269,#1285,#1298,#1312,#1327,#1340,#1350,#1368,#1381,#1395,#1419,
#1432,#1455,#1468,#1487,#1499,#1515,#1530,#1549,#1562,#1575,#1590,#1603,#1613,
#1628,#1641,#1651,#1663,#1675,#1692,#1705,#1717,#1730,#1749,#1761,#1777,#1792,
#1811,#1824,#1837,#1852,#1865,#1875,#1890,#1903,#1913,#1925,#1937,#1949,#1963,
#1976,#1989,#2001,#2015,#2028,#2041,#2053,#2068,#2081,#2091));
#2093=MANIFOLD_SOLID_BREP('',#2092);
#2094=CARTESIAN_POINT('',(0.E0,0.E0,0.E0));
#2095=DIRECTION('',(0.E0,0.E0,1.E0));
#2096=DIRECTION('',(1.E0,0.E0,0.E0));
#2097=AXIS2_PLACEMENT_3D('CSYS',#2094,#2095,#2096);
#2098=DIRECTION('',(0.E0,1.E0,0.E0));
#2099=VECTOR('',#2098,1.905E1);
#2100=CARTESIAN_POINT('',(-3.965E0,-6.035E0,0.E0));
#2101=LINE('',#2100,#2099);
#2104=DIRECTION('',(0.E0,1.E0,0.E0));
#2105=VECTOR('',#2104,1.905E1);
#2106=CARTESIAN_POINT('',(-5.000000000001E-3,-6.035E0,0.E0));
#2107=LINE('',#2106,#2105);
#2109=DIRECTION('',(0.E0,1.E0,0.E0));
#2110=VECTOR('',#2109,1.905E1);
#2111=CARTESIAN_POINT('',(3.955E0,-6.035E0,0.E0));
#2112=LINE('',#2111,#2110);
#2114=CARTESIAN_POINT('',(-3.965E0,-1.585E0,0.E0));
#2115=DIRECTION('',(0.E0,-1.E0,0.E0));
#2116=DIRECTION('',(1.E0,0.E0,0.E0));
#2117=AXIS2_PLACEMENT_3D('',#2114,#2115,#2116);
#2121=CARTESIAN_POINT('',(-3.965E0,-1.585E0,0.E0));
#2122=DIRECTION('',(0.E0,-1.E0,0.E0));
#2123=DIRECTION('',(-1.E0,0.E0,0.E0));
#2124=AXIS2_PLACEMENT_3D('',#2121,#2122,#2123);
#2129=CARTESIAN_POINT('',(-5.000000000001E-3,-1.585E0,0.E0));
#2130=DIRECTION('',(0.E0,-1.E0,0.E0));
#2131=DIRECTION('',(1.E0,0.E0,0.E0));
#2132=AXIS2_PLACEMENT_3D('',#2129,#2130,#2131);
#2136=CARTESIAN_POINT('',(-5.000000000001E-3,-1.585E0,0.E0));
#2137=DIRECTION('',(0.E0,-1.E0,0.E0));
#2138=DIRECTION('',(-1.E0,0.E0,0.E0));
#2139=AXIS2_PLACEMENT_3D('',#2136,#2137,#2138);
#2144=CARTESIAN_POINT('',(3.955E0,-1.585E0,0.E0));
#2145=DIRECTION('',(0.E0,-1.E0,0.E0));
#2146=DIRECTION('',(1.E0,0.E0,0.E0));
#2147=AXIS2_PLACEMENT_3D('',#2144,#2145,#2146);
#2151=CARTESIAN_POINT('',(3.955E0,-1.585E0,0.E0));
#2152=DIRECTION('',(0.E0,-1.E0,0.E0));
#2153=DIRECTION('',(-1.E0,0.E0,0.E0));
#2154=AXIS2_PLACEMENT_3D('',#2151,#2152,#2153);
#2160=DIMENSIONAL_EXPONENTS(0.E0,0.E0,0.E0,0.E0,0.E0,0.E0,0.E0);
#2162=PLANE_ANGLE_MEASURE_WITH_UNIT(PLANE_ANGLE_MEASURE(1.745329251994E-2),
#2161);
#2163=(CONVERSION_BASED_UNIT('DEGREE',#2162)NAMED_UNIT(*)PLANE_ANGLE_UNIT());
#2165=UNCERTAINTY_MEASURE_WITH_UNIT(LENGTH_MEASURE(2.349128455651E-3),#2159,
'closure',
'Maximum model space distance between geometric entities at asserted connectivities');
#2166=(GEOMETRIC_REPRESENTATION_CONTEXT(3)GLOBAL_UNCERTAINTY_ASSIGNED_CONTEXT((
#2165))GLOBAL_UNIT_ASSIGNED_CONTEXT((#2159,#2163,#2164))REPRESENTATION_CONTEXT(
'ID1','3'));
#2103=GEOMETRIC_SET('',(#2102,#2108,#2113,#2128,#2143,#2158));
#2170=SHAPE_REPRESENTATION_RELATIONSHIP('','',#2169,#2167);
#2171=SHAPE_REPRESENTATION_RELATIONSHIP('','',#2169,#2168);
#2172=APPLICATION_CONTEXT(
'CONFIGURATION CONTROLLED 3D DESIGNS OF MECHANICAL PARTS AND ASSEMBLIES');
#2173=APPLICATION_PROTOCOL_DEFINITION('international standard',
'config_control_design',1994,#2172);
#2174=DESIGN_CONTEXT('',#2172,'design');
#2175=MECHANICAL_CONTEXT('',#2172,'mechanical');
#2176=PRODUCT('026192031','026192031','NOT SPECIFIED',(#2175));
#2177=PRODUCT_DEFINITION_FORMATION_WITH_SPECIFIED_SOURCE('1','LAST_VERSION',
#2176,.MADE.);
#2181=PRODUCT_CATEGORY('part','');
#2182=PRODUCT_RELATED_PRODUCT_CATEGORY('detail','',(#2176));
#2183=PRODUCT_CATEGORY_RELATIONSHIP('','',#2181,#2182);
#2184=SECURITY_CLASSIFICATION_LEVEL('unclassified');
#2185=SECURITY_CLASSIFICATION('','',#2184);
#2186=CC_DESIGN_SECURITY_CLASSIFICATION(#2185,(#2177));
#2187=APPROVAL_STATUS('approved');
#2188=APPROVAL(#2187,'');
#2189=CC_DESIGN_APPROVAL(#2188,(#2185,#2177,#2178));
#2190=CALENDAR_DATE(114,8,9);
#2191=COORDINATED_UNIVERSAL_TIME_OFFSET(5,30,.AHEAD.);
#2192=LOCAL_TIME(15,54,3.E1,#2191);
#2193=DATE_AND_TIME(#2190,#2192);
#2194=APPROVAL_DATE_TIME(#2193,#2188);
#2195=DATE_TIME_ROLE('creation_date');
#2196=CC_DESIGN_DATE_AND_TIME_ASSIGNMENT(#2193,#2195,(#2178));
#2197=DATE_TIME_ROLE('classification_date');
#2198=CC_DESIGN_DATE_AND_TIME_ASSIGNMENT(#2193,#2197,(#2185));
#2199=PERSON('UNSPECIFIED','UNSPECIFIED',$,$,$,$);
#2200=ORGANIZATION('UNSPECIFIED','UNSPECIFIED','UNSPECIFIED');
#2201=PERSON_AND_ORGANIZATION(#2199,#2200);
#2202=APPROVAL_ROLE('approver');
#2203=APPROVAL_PERSON_ORGANIZATION(#2201,#2188,#2202);
#2204=PERSON_AND_ORGANIZATION_ROLE('creator');
#2205=CC_DESIGN_PERSON_AND_ORGANIZATION_ASSIGNMENT(#2201,#2204,(#2177,#2178));
#2206=PERSON_AND_ORGANIZATION_ROLE('design_supplier');
#2207=CC_DESIGN_PERSON_AND_ORGANIZATION_ASSIGNMENT(#2201,#2206,(#2177));
#2208=PERSON_AND_ORGANIZATION_ROLE('classification_officer');
#2209=CC_DESIGN_PERSON_AND_ORGANIZATION_ASSIGNMENT(#2201,#2208,(#2185));
#2210=PERSON_AND_ORGANIZATION_ROLE('design_owner');
#2211=CC_DESIGN_PERSON_AND_ORGANIZATION_ASSIGNMENT(#2201,#2210,(#2176));
#281=CIRCLE('',#280,5.7E-1);
#286=CIRCLE('',#285,5.7E-1);
#299=CIRCLE('',#298,5.7E-1);
#316=CIRCLE('',#315,5.7E-1);
#329=CIRCLE('',#328,5.7E-1);
#338=CIRCLE('',#337,5.7E-1);
#343=CIRCLE('',#342,2.3E-1);
#348=CIRCLE('',#347,2.3E-1);
#357=CIRCLE('',#356,5.7E-1);
#362=CIRCLE('',#361,5.7E-1);
#439=CIRCLE('',#438,5.7E-1);
#444=CIRCLE('',#443,5.7E-1);
#449=CIRCLE('',#448,5.7E-1);
#454=CIRCLE('',#453,5.7E-1);
#459=CIRCLE('',#458,5.7E-1);
#484=CIRCLE('',#483,5.7E-1);
#497=CIRCLE('',#496,5.7E-1);
#506=CIRCLE('',#505,5.7E-1);
#511=CIRCLE('',#510,2.3E-1);
#516=CIRCLE('',#515,2.3E-1);
#525=CIRCLE('',#524,2.3E-1);
#534=CIRCLE('',#533,2.3E-1);
#587=CIRCLE('',#586,5.7E-1);
#592=CIRCLE('',#591,5.7E-1);
#597=CIRCLE('',#596,5.7E-1);
#602=CIRCLE('',#601,5.7E-1);
#607=CIRCLE('',#606,5.7E-1);
#632=CIRCLE('',#631,5.7E-1);
#645=CIRCLE('',#644,5.7E-1);
#654=CIRCLE('',#653,5.7E-1);
#659=CIRCLE('',#658,2.3E-1);
#664=CIRCLE('',#663,2.3E-1);
#673=CIRCLE('',#672,2.3E-1);
#682=CIRCLE('',#681,2.3E-1);
#735=CIRCLE('',#734,2.3E-1);
#744=CIRCLE('',#743,2.3E-1);
#978=EDGE_CURVE('',#756,#799,#4,.T.);
#980=EDGE_CURVE('',#806,#799,#570,.T.);
#982=EDGE_CURVE('',#754,#806,#550,.T.);
#984=EDGE_CURVE('',#754,#764,#8,.T.);
#986=EDGE_CURVE('',#764,#762,#12,.T.);
#988=EDGE_CURVE('',#760,#762,#16,.T.);
#990=EDGE_CURVE('',#759,#760,#20,.T.);
#992=EDGE_CURVE('',#759,#858,#24,.T.);
#994=EDGE_CURVE('',#858,#856,#28,.T.);
#996=EDGE_CURVE('',#854,#856,#32,.T.);
#998=EDGE_CURVE('',#853,#854,#36,.T.);
#1000=EDGE_CURVE('',#853,#882,#40,.T.);
#1002=EDGE_CURVE('',#882,#880,#44,.T.);
#1004=EDGE_CURVE('',#878,#880,#48,.T.);
#1006=EDGE_CURVE('',#877,#878,#52,.T.);
#1008=EDGE_CURVE('',#877,#756,#56,.T.);
#1018=EDGE_CURVE('',#811,#752,#80,.T.);
#1020=EDGE_CURVE('',#802,#811,#60,.T.);
#1022=EDGE_CURVE('',#800,#802,#64,.T.);
#1024=EDGE_CURVE('',#799,#800,#68,.T.);
#1027=EDGE_CURVE('',#756,#751,#72,.T.);
#1029=EDGE_CURVE('',#751,#752,#180,.T.);
#1039=EDGE_CURVE('',#811,#812,#76,.T.);
#1042=EDGE_CURVE('',#752,#890,#176,.T.);
#1044=EDGE_CURVE('',#812,#890,#84,.T.);
#1054=EDGE_CURVE('',#814,#747,#566,.T.);
#1056=EDGE_CURVE('',#820,#814,#88,.T.);
#1058=EDGE_CURVE('',#820,#767,#92,.T.);
#1060=EDGE_CURVE('',#767,#747,#240,.T.);
#1070=EDGE_CURVE('',#817,#818,#96,.T.);
#1072=EDGE_CURVE('',#817,#885,#100,.T.);
#1074=EDGE_CURVE('',#885,#866,#272,.T.);
#1076=EDGE_CURVE('',#818,#866,#104,.T.);
#1080=EDGE_CURVE('',#967,#968,#136,.T.);
#1082=EDGE_CURVE('',#968,#970,#140,.T.);
#1084=EDGE_CURVE('',#970,#972,#144,.T.);
#1086=EDGE_CURVE('',#972,#967,#148,.T.);
#1096=EDGE_CURVE('',#822,#772,#108,.T.);
#1098=EDGE_CURVE('',#900,#822,#112,.T.);
#1100=EDGE_CURVE('',#900,#861,#116,.T.);
#1102=EDGE_CURVE('',#861,#772,#256,.T.);
#1106=EDGE_CURVE('',#791,#792,#120,.T.);
#1108=EDGE_CURVE('',#792,#794,#124,.T.);
#1110=EDGE_CURVE('',#794,#796,#128,.T.);
#1112=EDGE_CURVE('',#796,#791,#132,.T.);
#1123=EDGE_CURVE('',#908,#812,#156,.T.);
#1125=EDGE_CURVE('',#906,#908,#290,.T.);
#1127=EDGE_CURVE('',#817,#906,#276,.T.);
#1130=EDGE_CURVE('',#904,#818,#686,.T.);
#1132=EDGE_CURVE('',#902,#904,#611,.T.);
#1134=EDGE_CURVE('',#900,#902,#694,.T.);
#1137=EDGE_CURVE('',#850,#822,#542,.T.);
#1139=EDGE_CURVE('',#848,#850,#463,.T.);
#1141=EDGE_CURVE('',#820,#848,#546,.T.);
#1144=EDGE_CURVE('',#808,#814,#562,.T.);
#1146=EDGE_CURVE('',#808,#802,#152,.T.);
#1159=EDGE_CURVE('',#890,#888,#172,.T.);
#1161=EDGE_CURVE('',#888,#908,#160,.T.);
#1171=EDGE_CURVE('',#885,#886,#164,.T.);
#1173=EDGE_CURVE('',#886,#888,#168,.T.);
#1178=EDGE_CURVE('',#893,#751,#184,.T.);
#1180=EDGE_CURVE('',#893,#894,#188,.T.);
#1182=EDGE_CURVE('',#894,#896,#192,.T.);
#1184=EDGE_CURVE('',#898,#896,#196,.T.);
#1186=EDGE_CURVE('',#869,#898,#200,.T.);
#1188=EDGE_CURVE('',#869,#870,#204,.T.);
#1190=EDGE_CURVE('',#870,#872,#208,.T.);
#1192=EDGE_CURVE('',#874,#872,#212,.T.);
#1194=EDGE_CURVE('',#775,#874,#216,.T.);
#1196=EDGE_CURVE('',#775,#776,#220,.T.);
#1198=EDGE_CURVE('',#776,#778,#224,.T.);
#1200=EDGE_CURVE('',#780,#778,#228,.T.);
#1202=EDGE_CURVE('',#748,#780,#232,.T.);
#1204=EDGE_CURVE('',#747,#748,#236,.T.);
#1207=EDGE_CURVE('',#767,#768,#244,.T.);
#1209=EDGE_CURVE('',#768,#770,#248,.T.);
#1211=EDGE_CURVE('',#772,#770,#252,.T.);
#1214=EDGE_CURVE('',#861,#862,#260,.T.);
#1216=EDGE_CURVE('',#862,#864,#264,.T.);
#1218=EDGE_CURVE('',#866,#864,#268,.T.);
#1230=EDGE_CURVE('',#886,#906,#294,.T.);
#1248=EDGE_CURVE('',#951,#952,#281,.T.);
#1250=EDGE_CURVE('',#952,#951,#286,.T.);
#1261=EDGE_CURVE('',#951,#939,#307,.T.);
#1263=EDGE_CURVE('',#939,#947,#338,.T.);
#1265=EDGE_CURVE('',#952,#947,#303,.T.);
#1275=EDGE_CURVE('',#955,#956,#357,.T.);
#1277=EDGE_CURVE('',#944,#956,#320,.T.);
#1279=EDGE_CURVE('',#936,#944,#299,.T.);
#1281=EDGE_CURVE('',#936,#955,#311,.T.);
#1293=EDGE_CURVE('',#939,#947,#329,.T.);
#1304=EDGE_CURVE('',#956,#955,#362,.T.);
#1307=EDGE_CURVE('',#936,#944,#316,.T.);
#1318=EDGE_CURVE('',#939,#940,#324,.T.);
#1321=EDGE_CURVE('',#947,#948,#333,.T.);
#1323=EDGE_CURVE('',#940,#948,#343,.T.);
#1334=EDGE_CURVE('',#940,#948,#348,.T.);
#1357=EDGE_CURVE('',#896,#880,#366,.T.);
#1360=EDGE_CURVE('',#894,#878,#352,.T.);
#1375=EDGE_CURVE('',#882,#898,#390,.T.);
#1387=EDGE_CURVE('',#764,#780,#370,.T.);
#1390=EDGE_CURVE('',#754,#748,#374,.T.);
#1401=EDGE_CURVE('',#858,#874,#378,.T.);
#1404=EDGE_CURVE('',#759,#775,#382,.T.);
#1409=EDGE_CURVE('',#783,#784,#398,.T.);
#1411=EDGE_CURVE('',#788,#783,#402,.T.);
#1413=EDGE_CURVE('',#786,#788,#406,.T.);
#1415=EDGE_CURVE('',#784,#786,#410,.T.);
#1425=EDGE_CURVE('',#877,#893,#386,.T.);
#1440=EDGE_CURVE('',#853,#869,#394,.T.);
#1445=EDGE_CURVE('',#959,#960,#414,.T.);
#1447=EDGE_CURVE('',#964,#959,#418,.T.);
#1449=EDGE_CURVE('',#962,#964,#422,.T.);
#1451=EDGE_CURVE('',#960,#962,#426,.T.);
#1464=EDGE_CURVE('',#778,#762,#430,.T.);
#1477=EDGE_CURVE('',#776,#760,#434,.T.);
#1481=EDGE_CURVE('',#845,#846,#439,.T.);
#1483=EDGE_CURVE('',#846,#845,#444,.T.);
#1505=EDGE_CURVE('',#841,#842,#454,.T.);
#1507=EDGE_CURVE('',#841,#829,#475,.T.);
#1509=EDGE_CURVE('',#829,#837,#506,.T.);
#1511=EDGE_CURVE('',#842,#837,#471,.T.);
#1522=EDGE_CURVE('',#834,#846,#488,.T.);
#1524=EDGE_CURVE('',#826,#834,#449,.T.);
#1526=EDGE_CURVE('',#826,#845,#479,.T.);
#1537=EDGE_CURVE('',#770,#850,#538,.T.);
#1540=EDGE_CURVE('',#768,#848,#467,.T.);
#1545=EDGE_CURVE('',#842,#841,#459,.T.);
#1557=EDGE_CURVE('',#829,#837,#497,.T.);
#1570=EDGE_CURVE('',#826,#834,#484,.T.);
#1581=EDGE_CURVE('',#829,#830,#492,.T.);
#1584=EDGE_CURVE('',#837,#838,#501,.T.);
#1586=EDGE_CURVE('',#830,#838,#511,.T.);
#1597=EDGE_CURVE('',#830,#838,#516,.T.);
#1619=EDGE_CURVE('',#825,#826,#520,.T.);
#1621=EDGE_CURVE('',#825,#833,#525,.T.);
#1623=EDGE_CURVE('',#833,#834,#529,.T.);
#1637=EDGE_CURVE('',#825,#833,#534,.T.);
#1682=EDGE_CURVE('',#805,#806,#554,.T.);
#1684=EDGE_CURVE('',#808,#805,#558,.T.);
#1699=EDGE_CURVE('',#805,#800,#574,.T.);
#1726=EDGE_CURVE('',#872,#856,#578,.T.);
#1739=EDGE_CURVE('',#870,#854,#582,.T.);
#1743=EDGE_CURVE('',#931,#932,#587,.T.);
#1745=EDGE_CURVE('',#932,#931,#592,.T.);
#1767=EDGE_CURVE('',#927,#928,#602,.T.);
#1769=EDGE_CURVE('',#927,#915,#623,.T.);
#1771=EDGE_CURVE('',#915,#923,#654,.T.);
#1773=EDGE_CURVE('',#928,#923,#619,.T.);
#1784=EDGE_CURVE('',#920,#932,#636,.T.);
#1786=EDGE_CURVE('',#912,#920,#597,.T.);
#1788=EDGE_CURVE('',#912,#931,#627,.T.);
#1799=EDGE_CURVE('',#864,#904,#690,.T.);
#1802=EDGE_CURVE('',#862,#902,#615,.T.);
#1807=EDGE_CURVE('',#928,#927,#607,.T.);
#1819=EDGE_CURVE('',#915,#923,#645,.T.);
#1832=EDGE_CURVE('',#912,#920,#632,.T.);
#1843=EDGE_CURVE('',#915,#916,#640,.T.);
#1846=EDGE_CURVE('',#923,#924,#649,.T.);
#1848=EDGE_CURVE('',#916,#924,#659,.T.);
#1859=EDGE_CURVE('',#916,#924,#664,.T.);
#1881=EDGE_CURVE('',#911,#912,#668,.T.);
#1883=EDGE_CURVE('',#911,#919,#673,.T.);
#1885=EDGE_CURVE('',#919,#920,#677,.T.);
#1899=EDGE_CURVE('',#911,#919,#682,.T.);
#1956=EDGE_CURVE('',#792,#784,#702,.T.);
#1959=EDGE_CURVE('',#791,#783,#698,.T.);
#1970=EDGE_CURVE('',#794,#786,#706,.T.);
#1983=EDGE_CURVE('',#796,#788,#710,.T.);
#2008=EDGE_CURVE('',#968,#960,#718,.T.);
#2011=EDGE_CURVE('',#967,#959,#714,.T.);
#2022=EDGE_CURVE('',#970,#962,#722,.T.);
#2035=EDGE_CURVE('',#972,#964,#726,.T.);
#2059=EDGE_CURVE('',#935,#936,#730,.T.);
#2061=EDGE_CURVE('',#935,#943,#735,.T.);
#2063=EDGE_CURVE('',#943,#944,#739,.T.);
#2077=EDGE_CURVE('',#935,#943,#744,.T.);
#2102=TRIMMED_CURVE('A_1',#2101,(PARAMETER_VALUE(0.E0)),(PARAMETER_VALUE(1.E0)),
.T.,.UNSPECIFIED.);
#2108=TRIMMED_CURVE('A_2',#2107,(PARAMETER_VALUE(0.E0)),(PARAMETER_VALUE(1.E0)),
.T.,.UNSPECIFIED.);
#2113=TRIMMED_CURVE('A_3',#2112,(PARAMETER_VALUE(0.E0)),(PARAMETER_VALUE(1.E0)),
.T.,.UNSPECIFIED.);
#2118=CIRCLE('',#2117,7.6E-1);
#2119=TRIMMED_CURVE('',#2118,(PARAMETER_VALUE(0.E0)),(PARAMETER_VALUE(1.8E2)),
.T.,.UNSPECIFIED.);
#2120=COMPOSITE_CURVE_SEGMENT(.CONTINUOUS.,.T.,#2119);
#2125=CIRCLE('',#2124,7.6E-1);
#2126=TRIMMED_CURVE('',#2125,(PARAMETER_VALUE(0.E0)),(PARAMETER_VALUE(1.8E2)),
.T.,.UNSPECIFIED.);
#2127=COMPOSITE_CURVE_SEGMENT(.CONTINUOUS.,.T.,#2126);
#2128=COMPOSITE_CURVE('',(#2120,#2127),.F.);
#2133=CIRCLE('',#2132,7.6E-1);
#2134=TRIMMED_CURVE('',#2133,(PARAMETER_VALUE(0.E0)),(PARAMETER_VALUE(1.8E2)),
.T.,.UNSPECIFIED.);
#2135=COMPOSITE_CURVE_SEGMENT(.CONTINUOUS.,.T.,#2134);
#2140=CIRCLE('',#2139,7.6E-1);
#2141=TRIMMED_CURVE('',#2140,(PARAMETER_VALUE(0.E0)),(PARAMETER_VALUE(1.8E2)),
.T.,.UNSPECIFIED.);
#2142=COMPOSITE_CURVE_SEGMENT(.CONTINUOUS.,.T.,#2141);
#2143=COMPOSITE_CURVE('',(#2135,#2142),.F.);
#2148=CIRCLE('',#2147,7.6E-1);
#2149=TRIMMED_CURVE('',#2148,(PARAMETER_VALUE(0.E0)),(PARAMETER_VALUE(1.8E2)),
.T.,.UNSPECIFIED.);
#2150=COMPOSITE_CURVE_SEGMENT(.CONTINUOUS.,.T.,#2149);
#2155=CIRCLE('',#2154,7.6E-1);
#2156=TRIMMED_CURVE('',#2155,(PARAMETER_VALUE(0.E0)),(PARAMETER_VALUE(1.8E2)),
.T.,.UNSPECIFIED.);
#2157=COMPOSITE_CURVE_SEGMENT(.CONTINUOUS.,.T.,#2156);
#2158=COMPOSITE_CURVE('',(#2150,#2157),.F.);
#2159=(LENGTH_UNIT()NAMED_UNIT(*)SI_UNIT(.MILLI.,.METRE.));
#2161=(NAMED_UNIT(*)PLANE_ANGLE_UNIT()SI_UNIT($,.RADIAN.));
#2164=(NAMED_UNIT(*)SI_UNIT($,.STERADIAN.)SOLID_ANGLE_UNIT());
#2167=ADVANCED_BREP_SHAPE_REPRESENTATION('',(#2093),#2166);
#2168=GEOMETRICALLY_BOUNDED_SURFACE_SHAPE_REPRESENTATION('',(#2103),#2166);
#2169=SHAPE_REPRESENTATION('',(#2097),#2166);
#2178=PRODUCT_DEFINITION('design','',#2177,#2174);
#2179=PRODUCT_DEFINITION_SHAPE('','SHAPE FOR 026192031.',#2178);
#2180=SHAPE_DEFINITION_REPRESENTATION(#2179,#2169);
ENDSEC;
END-ISO-10303-21;
